<?xml version="1.0" encoding="utf-8"?>
<!-- Generator: Adobe Illustrator 15.0.0, SVG Export Plug-In . SVG Version: 6.00 Build 0)  -->
<!DOCTYPE svg PUBLIC "-//W3C//DTD SVG 1.1//EN" "http://www.w3.org/Graphics/SVG/1.1/DTD/svg11.dtd">
<svg version="1.1" id="Ebene_1" xmlns="http://www.w3.org/2000/svg" xmlns:xlink="http://www.w3.org/1999/xlink" x="0px" y="0px"
	 width="170.833px" height="172.619px" viewBox="0 0 170.833 172.619" enable-background="new 0 0 170.833 172.619"
	 xml:space="preserve">
<g>
	<path fill="#2C3F50" d="M134.24,65.655l7.336-3.191c-1.134-2.605-2.469-5.158-3.968-7.589l-6.809,4.199
		C132.1,61.183,133.257,63.397,134.24,65.655z"/>
	<path fill="#2C3F50" d="M138.145,79.934l7.939-0.988c-0.353-2.829-0.911-5.655-1.662-8.4l-7.717,2.111
		C137.356,75.034,137.84,77.482,138.145,79.934z"/>
	<path fill="#2C3F50" d="M126.459,53.05l6.145-5.123c-1.823-2.188-3.819-4.263-5.932-6.169l-5.359,5.939
		C123.146,49.351,124.877,51.152,126.459,53.05z"/>
	<path fill="#2C3F50" d="M138.542,87.352c-0.043,2.479-0.26,4.969-0.647,7.398l7.9,1.26c0.446-2.801,0.697-5.668,0.745-8.521
		L138.542,87.352z"/>
	<path fill="#2C3F50" d="M113.979,130.759l-1.243,0.715c-5.983,3.521-12.725,5.885-19.916,6.782
		c-0.986,0.122-1.98,0.225-2.979,0.291c-0.081,0.005-0.163,0.007-0.243,0.012c-1.072,0.066-2.146,0.104-3.215,0.104
		c-0.012,0-0.022,0.001-0.034,0.001h-0.011c-3.566-0.001-7.051-0.362-10.418-1.048c-0.065-0.013-0.13-0.027-0.195-0.04
		c-10.836-2.249-20.448-7.87-27.697-15.708c-0.175-0.189-0.35-0.378-0.521-0.569c-6.584-7.332-11.128-16.53-12.728-26.695
		c-0.021-0.132-0.042-0.264-0.062-0.396c-0.378-2.529-0.578-5.116-0.578-7.749c0-0.837,0.024-1.668,0.063-2.495
		c0.009-0.179,0.021-0.357,0.031-0.535c0.038-0.669,0.089-1.335,0.152-1.998c0.015-0.152,0.027-0.306,0.043-0.458
		c2.652-25.279,23.418-45.24,49.045-46.637c0.241-0.013,0.482-0.018,0.724-0.027c0.581-0.023,1.164-0.04,1.749-0.045
		c0.381-0.003,0.761-0.003,1.141,0.003c9.345,0.132,18.1,2.734,25.649,7.178l0.025-0.015c0.919,0.54,1.823,1.102,2.703,1.694
		l4.469-6.635c-2.359-1.59-4.854-3.023-7.418-4.263l-0.015,0.029c-2.555-1.239-5.207-2.309-7.946-3.182l0.005-0.015
		c-2.715-0.861-5.518-1.533-8.329-1.997l-0.002,0.013c-2.778-0.462-5.621-0.729-8.514-0.795V26.27
		c-0.218-0.005-0.438,0.001-0.657-0.002c-0.238-0.003-0.475-0.014-0.714-0.014c-0.144,0-0.285,0.01-0.429,0.011
		c-0.695,0.005-1.391,0.024-2.087,0.053c-0.262,0.011-0.524,0.017-0.785,0.031c-0.943,0.051-1.886,0.12-2.824,0.215
		c-0.057,0.006-0.112,0.015-0.168,0.021c-0.75,0.078-1.498,0.165-2.239,0.271l0.002,0.015c-2.857,0.407-5.649,1.02-8.364,1.814
		l-0.007-0.023c-0.317,0.093-0.633,0.197-0.949,0.296c-0.021,0.007-0.043,0.014-0.065,0.021c-2.385,0.742-4.742,1.632-7.019,2.668
		l0.015,0.031c-2.61,1.191-5.119,2.563-7.514,4.102l-0.022-0.034c-2.396,1.536-4.704,3.259-6.86,5.12l0.029,0.033
		c-2.16,1.865-4.185,3.879-6.061,6.028l-0.034-0.029c-1.872,2.145-3.606,4.443-5.155,6.831l0.033,0.021
		c-1.549,2.384-2.934,4.881-4.139,7.48l-0.029-0.014c-1.198,2.59-2.218,5.286-3.03,8.013l0.021,0.006
		c-0.811,2.711-1.441,5.498-1.864,8.353l-0.01-0.001c-0.124,0.838-0.225,1.683-0.313,2.53c-0.021,0.19-0.036,0.383-0.055,0.574
		c-0.071,0.755-0.129,1.512-0.173,2.271c-0.012,0.207-0.026,0.414-0.036,0.622c-0.04,0.844-0.068,1.688-0.073,2.532h0.009
		c-0.001,0.115-0.009,0.229-0.009,0.345c0,2.779,0.205,5.51,0.572,8.189l-0.02,0.003c0.032,0.238,0.075,0.476,0.11,0.714
		c0.026,0.176,0.054,0.352,0.081,0.527c0.14,0.881,0.294,1.76,0.473,2.636c0.004,0.021,0.008,0.042,0.012,0.063
		c0.197,0.962,0.42,1.917,0.663,2.865c0.008,0.03,0.017,0.06,0.023,0.089c0.129,0.497,0.256,0.994,0.396,1.486l0.024-0.007
		c0.794,2.767,1.779,5.451,2.944,8.041l-0.03,0.014c1.165,2.6,2.53,5.138,4.056,7.546l0.033-0.021
		c1.532,2.415,3.229,4.714,5.079,6.882l-0.032,0.027c1.847,2.163,3.864,4.216,5.999,6.101l0.028-0.032
		c2.136,1.886,4.403,3.623,6.792,5.194l-0.021,0.03c2.378,1.563,4.891,2.969,7.466,4.179l0.012-0.025
		c2.569,1.209,5.234,2.244,7.985,3.085l-0.005,0.016c1.716,0.522,3.468,0.961,5.234,1.329c0.122,0.025,0.244,0.052,0.367,0.076
		c0.913,0.185,1.829,0.355,2.748,0.496l0.001-0.004c2.786,0.43,5.638,0.655,8.534,0.688v0.014l0.678,0.004
		c0.73,0,1.462-0.017,2.192-0.043c0.23-0.008,0.46-0.022,0.689-0.033c0.512-0.024,1.022-0.053,1.532-0.09
		c0.235-0.017,0.47-0.037,0.705-0.057c0.534-0.045,1.065-0.097,1.597-0.155c0.182-0.021,0.363-0.04,0.544-0.063
		c0.197-0.023,0.396-0.042,0.594-0.067l-0.002-0.014c2.863-0.375,5.664-0.946,8.387-1.711l0.004,0.015
		c2.744-0.768,5.459-1.74,8.066-2.893l-0.012-0.026c2.623-1.163,5.146-2.511,7.557-4.021l0.022,0.036
		c2.413-1.508,4.74-3.205,6.919-5.042l-5.158-6.115C118.09,127.98,116.071,129.451,113.979,130.759z"/>
	<path fill="#2C3F50" d="M133.501,108.883l7.223,3.439c1.226-2.573,2.275-5.256,3.12-7.974l-7.639-2.375
		C135.473,104.329,134.564,106.653,133.501,108.883z"/>
	<path fill="#2C3F50" d="M125.304,121.208l5.967,5.328c1.898-2.126,3.658-4.403,5.233-6.771l-6.662-4.43
		C128.477,117.387,126.95,119.364,125.304,121.208z"/>
</g>
</svg>
