<?xml version="1.0" encoding="utf-8"?>
<!-- Generator: Adobe Illustrator 15.0.0, SVG Export Plug-In . SVG Version: 6.00 Build 0)  -->
<!DOCTYPE svg PUBLIC "-//W3C//DTD SVG 1.1//EN" "http://www.w3.org/Graphics/SVG/1.1/DTD/svg11.dtd">
<svg version="1.1" id="Ebene_1" xmlns="http://www.w3.org/2000/svg" xmlns:xlink="http://www.w3.org/1999/xlink" x="0px" y="0px"
	 width="570.332px" height="187.902px" viewBox="0 0 570.332 187.902" enable-background="new 0 0 570.332 187.902"
	 xml:space="preserve">
<rect x="-1.701" y="-1.701" fill="#2D3E50" width="573.733" height="191.304"/>
<rect x="4.906" y="4.857" fill="#FFFFFF" stroke="#2D3E50" stroke-width="5" stroke-miterlimit="10" width="560.52" height="178.188"/>
<g>
	<path fill="#2D3E50" d="M218.997,66.327c-5.608,0-10.034,1.867-13.28,5.602c-3.246,3.734-4.869,8.848-4.869,15.339
		c0,6.678,1.564,11.838,4.694,15.479c3.129,3.642,7.591,5.462,13.385,5.462c3.56,0,7.62-0.64,12.181-1.919v5.2
		c-3.537,1.326-7.9,1.99-13.088,1.99c-7.516,0-13.315-2.28-17.398-6.841c-4.083-4.56-6.125-11.041-6.125-19.44
		c0-5.258,0.982-9.865,2.949-13.821c1.966-3.956,4.804-7.003,8.516-9.145c3.711-2.141,8.08-3.211,13.105-3.211
		c5.352,0,10.028,0.977,14.03,2.932l-2.513,5.096C226.721,67.234,222.858,66.327,218.997,66.327z"/>
	<path fill="#2D3E50" d="M269.038,112.781l-1.152-5.445h-0.279c-1.908,2.397-3.81,4.02-5.706,4.869
		c-1.897,0.849-4.264,1.274-7.103,1.274c-3.793,0-6.766-0.978-8.917-2.932c-2.152-1.954-3.229-4.734-3.229-8.341
		c0-7.725,6.178-11.773,18.533-12.146l6.492-0.209v-2.373c0-3.001-0.646-5.218-1.937-6.649c-1.292-1.431-3.356-2.146-6.195-2.146
		c-3.188,0-6.794,0.978-10.82,2.932l-1.78-4.433c1.885-1.024,3.949-1.827,6.195-2.408c2.245-0.582,4.497-0.873,6.753-0.873
		c4.561,0,7.94,1.012,10.139,3.036c2.199,2.024,3.298,5.271,3.298,9.738v26.106H269.038z M255.95,108.697
		c3.606,0,6.439-0.989,8.499-2.967c2.06-1.977,3.089-4.747,3.089-8.307v-3.455l-5.793,0.244c-4.607,0.163-7.929,0.879-9.964,2.146
		c-2.037,1.269-3.054,3.241-3.054,5.916c0,2.094,0.634,3.688,1.902,4.781C251.896,108.151,253.669,108.697,255.95,108.697z"/>
	<path fill="#2D3E50" d="M314.088,102.345c0,3.56-1.326,6.306-3.979,8.237c-2.653,1.932-6.376,2.897-11.169,2.897
		c-5.073,0-9.028-0.803-11.866-2.408v-5.375c1.837,0.931,3.81,1.664,5.915,2.199c2.105,0.536,4.137,0.803,6.091,0.803
		c3.024,0,5.352-0.482,6.98-1.448c1.628-0.965,2.443-2.438,2.443-4.415c0-1.489-0.646-2.763-1.938-3.822
		c-1.291-1.059-3.811-2.309-7.557-3.752c-3.56-1.326-6.09-2.483-7.591-3.473c-1.501-0.989-2.617-2.112-3.351-3.368
		c-0.732-1.256-1.1-2.757-1.1-4.502c0-3.118,1.269-5.578,3.805-7.382c2.536-1.803,6.015-2.705,10.436-2.705
		c4.118,0,8.144,0.837,12.076,2.513l-2.06,4.712c-3.839-1.582-7.317-2.374-10.436-2.374c-2.746,0-4.816,0.431-6.212,1.292
		c-1.396,0.861-2.095,2.048-2.095,3.56c0,1.024,0.262,1.896,0.785,2.618s1.367,1.408,2.53,2.059
		c1.164,0.652,3.397,1.594,6.701,2.827c4.537,1.652,7.603,3.315,9.197,4.991C313.291,97.703,314.088,99.809,314.088,102.345z"/>
	<path fill="#2D3E50" d="M353.834,112.781V88.036c0-3.118-0.71-5.445-2.129-6.98c-1.42-1.536-3.643-2.304-6.667-2.304
		c-4.025,0-6.963,1.094-8.813,3.281c-1.85,2.188-2.774,5.771-2.774,10.75v19.999h-5.794V58.474h5.794v16.439
		c0,1.978-0.094,3.618-0.279,4.921h0.349c1.14-1.838,2.763-3.286,4.869-4.345c2.105-1.059,4.508-1.588,7.207-1.588
		c4.677,0,8.185,1.111,10.523,3.333c2.338,2.222,3.507,5.753,3.507,10.593v24.955H353.834z"/>
	<path fill="#2D3E50" d="M393.474,73.9c5.026,0,8.929,1.716,11.71,5.148c2.78,3.432,4.171,8.289,4.171,14.571
		s-1.402,11.163-4.206,14.642s-6.695,5.218-11.675,5.218c-2.49,0-4.764-0.46-6.823-1.379c-2.059-0.919-3.787-2.333-5.183-4.24
		h-0.419l-1.222,4.921h-4.153V58.474h5.794v13.193c0,2.955-0.094,5.608-0.279,7.958h0.279C384.167,75.809,388.169,73.9,393.474,73.9
		z M392.636,78.751c-3.955,0-6.806,1.134-8.551,3.403c-1.745,2.269-2.617,6.09-2.617,11.465s0.896,9.22,2.688,11.535
		c1.791,2.315,4.665,3.473,8.62,3.473c3.561,0,6.213-1.297,7.958-3.892c1.745-2.594,2.617-6.323,2.617-11.186
		c0-4.979-0.872-8.69-2.617-11.133C398.989,79.973,396.29,78.751,392.636,78.751z"/>
	<path fill="#2D3E50" d="M447.145,112.781l-1.151-5.445h-0.279c-1.908,2.397-3.811,4.02-5.706,4.869
		c-1.896,0.849-4.265,1.274-7.103,1.274c-3.793,0-6.766-0.978-8.918-2.932c-2.152-1.954-3.229-4.734-3.229-8.341
		c0-7.725,6.178-11.773,18.533-12.146l6.492-0.209v-2.373c0-3.001-0.646-5.218-1.938-6.649c-1.291-1.431-3.356-2.146-6.195-2.146
		c-3.188,0-6.794,0.978-10.819,2.932l-1.78-4.433c1.885-1.024,3.95-1.827,6.195-2.408s4.496-0.873,6.754-0.873
		c4.56,0,7.939,1.012,10.139,3.036c2.199,2.024,3.298,5.271,3.298,9.738v26.106H447.145z M434.057,108.697
		c3.606,0,6.439-0.989,8.499-2.967c2.059-1.977,3.089-4.747,3.089-8.307v-3.455l-5.794,0.244c-4.607,0.163-7.929,0.879-9.965,2.146
		c-2.036,1.269-3.054,3.241-3.054,5.916c0,2.094,0.634,3.688,1.902,4.781C430.002,108.151,431.777,108.697,434.057,108.697z"/>
	<path fill="#2D3E50" d="M482.808,113.479c-5.538,0-9.825-1.705-12.861-5.113c-3.036-3.408-4.555-8.231-4.555-14.467
		c0-6.398,1.541-11.343,4.624-14.833c3.083-3.49,7.475-5.235,13.176-5.235c1.838,0,3.676,0.198,5.515,0.593
		c1.838,0.396,3.28,0.861,4.328,1.396l-1.78,4.921c-1.28-0.512-2.676-0.937-4.188-1.274s-2.851-0.506-4.014-0.506
		c-7.771,0-11.657,4.956-11.657,14.868c0,4.7,0.948,8.307,2.845,10.819c1.896,2.513,4.706,3.77,8.429,3.77
		c3.188,0,6.457-0.686,9.808-2.059v5.13C489.917,112.815,486.694,113.479,482.808,113.479z"/>
	<path fill="#2D3E50" d="M511.419,93.201c1.001-1.419,2.524-3.281,4.572-5.584l12.355-13.088h6.876l-15.497,16.299l16.579,21.953
		h-7.016l-13.507-18.079l-4.363,3.77v14.31h-5.724V58.474h5.724v28.794c0,1.28-0.093,3.258-0.279,5.933H511.419z"/>
</g>
<g>
	<path fill="#2D3E50" d="M203.594,156.075h-2.356v-15.153c0-1.26,0.039-2.453,0.116-3.577c-0.204,0.204-0.432,0.417-0.684,0.64
		c-0.252,0.223-1.406,1.168-3.461,2.836l-1.28-1.658l5.628-4.348h2.036V156.075z"/>
	<path fill="#2D3E50" d="M228.243,145.416c0,3.674-0.58,6.418-1.738,8.23c-1.159,1.813-2.93,2.72-5.315,2.72
		c-2.288,0-4.028-0.929-5.221-2.785s-1.789-4.578-1.789-8.165c0-3.704,0.577-6.452,1.73-8.246c1.154-1.793,2.913-2.69,5.279-2.69
		c2.307,0,4.06,0.936,5.257,2.807C227.645,139.157,228.243,141.867,228.243,145.416z M216.624,145.416
		c0,3.093,0.364,5.344,1.091,6.755c0.727,1.41,1.886,2.115,3.476,2.115c1.609,0,2.775-0.715,3.498-2.145s1.083-3.672,1.083-6.726
		c0-3.054-0.361-5.292-1.083-6.712c-0.722-1.42-1.888-2.13-3.498-2.13c-1.59,0-2.749,0.701-3.476,2.102
		S216.624,142.323,216.624,145.416z"/>
	<path fill="#2D3E50" d="M242.378,141.154c0,2.21-0.371,3.88-1.112,5.01c-0.742,1.129-1.83,1.693-3.265,1.693
		c-1.357,0-2.412-0.576-3.163-1.73c-0.751-1.153-1.127-2.811-1.127-4.973c0-2.201,0.361-3.858,1.083-4.974
		c0.722-1.115,1.791-1.672,3.207-1.672c1.406,0,2.487,0.577,3.243,1.73C242,137.393,242.378,139.031,242.378,141.154z
		 M235.717,141.154c0,1.648,0.18,2.884,0.538,3.708c0.359,0.824,0.94,1.236,1.745,1.236c1.59,0,2.385-1.648,2.385-4.945
		c0-3.277-0.795-4.916-2.385-4.916c-0.805,0-1.386,0.407-1.745,1.222C235.897,138.275,235.717,139.506,235.717,141.154z
		 M251.438,134.814l-11.794,21.261h-2.138l11.794-21.261H251.438z M255.19,149.676c0,2.201-0.371,3.866-1.113,4.995
		c-0.742,1.13-1.83,1.694-3.265,1.694c-1.377,0-2.436-0.577-3.178-1.73c-0.741-1.154-1.112-2.807-1.112-4.959
		c0-2.201,0.361-3.858,1.083-4.974c0.722-1.115,1.791-1.672,3.207-1.672c1.376,0,2.45,0.57,3.221,1.708
		C254.804,145.878,255.19,147.524,255.19,149.676z M248.515,149.676c0,1.657,0.179,2.896,0.538,3.716s0.945,1.229,1.76,1.229
		s1.416-0.405,1.803-1.215c0.388-0.809,0.582-2.053,0.582-3.729c0-1.658-0.194-2.887-0.582-3.687s-0.989-1.2-1.803-1.2
		s-1.401,0.4-1.76,1.2S248.515,148.018,248.515,149.676z"/>
	<path fill="#2D3E50" d="M271.753,135.817c0-0.553,0.136-0.958,0.407-1.214c0.271-0.257,0.611-0.386,1.018-0.386
		c0.387,0,0.722,0.131,1.003,0.393c0.281,0.262,0.421,0.664,0.421,1.207s-0.141,0.948-0.421,1.214c-0.282,0.267-0.616,0.4-1.003,0.4
		c-0.407,0-0.747-0.133-1.018-0.4C271.889,136.765,271.753,136.36,271.753,135.817z M274.371,156.075h-2.414v-15.938h2.414V156.075z
		"/>
	<path fill="#2D3E50" d="M292.868,156.075v-10.311c0-1.299-0.296-2.269-0.887-2.909c-0.592-0.64-1.518-0.959-2.777-0.959
		c-1.668,0-2.89,0.451-3.665,1.353c-0.775,0.901-1.163,2.39-1.163,4.464v8.362h-2.414v-15.938h1.963l0.393,2.181h0.116
		c0.495-0.785,1.188-1.394,2.08-1.825c0.892-0.432,1.886-0.647,2.981-0.647c1.919,0,3.363,0.463,4.333,1.389
		s1.454,2.407,1.454,4.443v10.397H292.868z"/>
	<path fill="#2D3E50" d="M313.285,134.814h6.006c2.821,0,4.862,0.421,6.123,1.265c1.26,0.843,1.89,2.176,1.89,3.999
		c0,1.26-0.351,2.3-1.054,3.119c-0.703,0.82-1.729,1.35-3.076,1.592v0.146c3.229,0.553,4.843,2.249,4.843,5.09
		c0,1.9-0.643,3.384-1.927,4.45c-1.285,1.066-3.081,1.6-5.388,1.6h-7.417V134.814z M315.757,143.917h4.071
		c1.745,0,3.001-0.274,3.767-0.822c0.766-0.548,1.149-1.471,1.149-2.771c0-1.192-0.427-2.053-1.28-2.581s-2.21-0.792-4.071-0.792
		h-3.636V143.917z M315.757,146.011v7.955h4.436c1.716,0,3.008-0.332,3.875-0.996c0.868-0.664,1.302-1.704,1.302-3.12
		c0-1.318-0.443-2.287-1.331-2.908c-0.887-0.62-2.237-0.931-4.05-0.931H315.757z"/>
	<path fill="#2D3E50" d="M332.161,140.136h2.588l3.49,9.089c0.767,2.075,1.241,3.573,1.426,4.494h0.116
		c0.126-0.495,0.39-1.341,0.792-2.538s1.719-4.879,3.948-11.045h2.589l-6.85,18.148c-0.679,1.794-1.471,3.066-2.377,3.817
		c-0.907,0.752-2.02,1.128-3.338,1.128c-0.737,0-1.464-0.083-2.182-0.248v-1.934c0.533,0.116,1.13,0.175,1.789,0.175
		c1.658,0,2.841-0.931,3.548-2.793l0.888-2.269L332.161,140.136z"/>
	<path fill="#2D3E50" d="M357.319,154.374c0.427,0,0.839-0.031,1.236-0.095s0.713-0.129,0.945-0.196v1.847
		c-0.262,0.126-0.647,0.23-1.156,0.313s-0.967,0.124-1.374,0.124c-3.083,0-4.624-1.624-4.624-4.872v-9.481h-2.283v-1.164
		l2.283-1.003l1.018-3.403h1.396v3.694h4.624v1.876h-4.624v9.38c0,0.96,0.228,1.696,0.683,2.21
		C355.899,154.117,356.524,154.374,357.319,154.374z"/>
	<path fill="#2D3E50" d="M371.89,156.366c-2.356,0-4.216-0.718-5.577-2.152c-1.362-1.435-2.043-3.427-2.043-5.977
		c0-2.569,0.632-4.61,1.897-6.123c1.265-1.513,2.964-2.269,5.097-2.269c1.997,0,3.578,0.657,4.741,1.971
		c1.163,1.314,1.745,3.047,1.745,5.199v1.526h-10.979c0.048,1.871,0.521,3.292,1.418,4.261c0.896,0.97,2.159,1.455,3.788,1.455
		c1.716,0,3.412-0.359,5.09-1.076v2.152c-0.854,0.368-1.66,0.632-2.421,0.792C373.884,156.286,372.966,156.366,371.89,156.366z
		 M371.235,141.867c-1.279,0-2.3,0.417-3.061,1.251c-0.762,0.834-1.21,1.987-1.346,3.461h8.333c0-1.522-0.339-2.688-1.018-3.498
		C373.465,142.271,372.496,141.867,371.235,141.867z"/>
	<path fill="#2D3E50" d="M391.753,139.875c2.095,0,3.721,0.715,4.88,2.145c1.158,1.43,1.737,3.454,1.737,6.072
		c0,2.617-0.584,4.651-1.752,6.101c-1.169,1.449-2.79,2.174-4.865,2.174c-1.037,0-1.984-0.191-2.843-0.574
		c-0.857-0.383-1.577-0.973-2.159-1.768h-0.175l-0.509,2.051h-1.73v-22.628h2.414v5.497c0,1.231-0.039,2.336-0.116,3.315h0.116
		C387.875,140.669,389.543,139.875,391.753,139.875z M391.405,141.896c-1.648,0-2.836,0.473-3.563,1.418
		c-0.728,0.945-1.091,2.537-1.091,4.777c0,2.239,0.373,3.842,1.119,4.806c0.747,0.965,1.944,1.447,3.593,1.447
		c1.483,0,2.588-0.54,3.315-1.621c0.727-1.081,1.091-2.635,1.091-4.661c0-2.075-0.364-3.621-1.091-4.64
		C394.051,142.405,392.927,141.896,391.405,141.896z"/>
	<path fill="#2D3E50" d="M414.863,156.075l-0.48-2.269h-0.116c-0.795,0.999-1.588,1.675-2.378,2.028
		c-0.79,0.354-1.776,0.531-2.959,0.531c-1.58,0-2.819-0.407-3.716-1.222s-1.345-1.973-1.345-3.476c0-3.219,2.574-4.905,7.722-5.061
		l2.705-0.088v-0.988c0-1.251-0.27-2.175-0.808-2.771c-0.538-0.596-1.398-0.895-2.581-0.895c-1.328,0-2.831,0.407-4.508,1.222
		l-0.742-1.847c0.786-0.427,1.646-0.761,2.582-1.003c0.936-0.243,1.873-0.364,2.813-0.364c1.9,0,3.309,0.422,4.225,1.265
		s1.374,2.196,1.374,4.057v10.878H414.863z M409.409,154.374c1.503,0,2.684-0.412,3.541-1.236c0.858-0.824,1.287-1.978,1.287-3.461
		v-1.439l-2.414,0.102c-1.919,0.067-3.304,0.366-4.151,0.895c-0.849,0.528-1.272,1.35-1.272,2.465c0,0.872,0.264,1.536,0.792,1.992
		S408.458,154.374,409.409,154.374z"/>
	<path fill="#2D3E50" d="M426.51,156.075h-2.414v-22.628h2.414V156.075z"/>
	<path fill="#2D3E50" d="M436.515,156.075h-2.414v-22.628h2.414V156.075z"/>
	<path fill="#2D3E50" d="M454.678,134.814h6.006c2.821,0,4.862,0.421,6.123,1.265c1.26,0.843,1.89,2.176,1.89,3.999
		c0,1.26-0.351,2.3-1.054,3.119c-0.703,0.82-1.729,1.35-3.076,1.592v0.146c3.229,0.553,4.843,2.249,4.843,5.09
		c0,1.9-0.643,3.384-1.927,4.45c-1.285,1.066-3.081,1.6-5.388,1.6h-7.417V134.814z M457.151,143.917h4.071
		c1.745,0,3.001-0.274,3.767-0.822c0.766-0.548,1.149-1.471,1.149-2.771c0-1.192-0.427-2.053-1.28-2.581s-2.21-0.792-4.071-0.792
		h-3.636V143.917z M457.151,146.011v7.955h4.436c1.716,0,3.008-0.332,3.875-0.996c0.868-0.664,1.302-1.704,1.302-3.12
		c0-1.318-0.443-2.287-1.331-2.908c-0.887-0.62-2.237-0.931-4.05-0.931H457.151z"/>
	<path fill="#2D3E50" d="M473.554,140.136h2.588l3.49,9.089c0.767,2.075,1.241,3.573,1.426,4.494h0.116
		c0.126-0.495,0.39-1.341,0.792-2.538s1.719-4.879,3.948-11.045h2.589l-6.85,18.148c-0.679,1.794-1.471,3.066-2.377,3.817
		c-0.907,0.752-2.02,1.128-3.338,1.128c-0.737,0-1.464-0.083-2.182-0.248v-1.934c0.533,0.116,1.13,0.175,1.789,0.175
		c1.658,0,2.841-0.931,3.548-2.793l0.888-2.269L473.554,140.136z"/>
	<path fill="#2D3E50" d="M498.711,154.374c0.427,0,0.839-0.031,1.236-0.095s0.713-0.129,0.945-0.196v1.847
		c-0.262,0.126-0.647,0.23-1.156,0.313s-0.967,0.124-1.374,0.124c-3.083,0-4.624-1.624-4.624-4.872v-9.481h-2.283v-1.164
		l2.283-1.003l1.018-3.403h1.396v3.694h4.624v1.876h-4.624v9.38c0,0.96,0.228,1.696,0.683,2.21
		C497.292,154.117,497.917,154.374,498.711,154.374z"/>
	<path fill="#2D3E50" d="M513.284,156.366c-2.356,0-4.216-0.718-5.577-2.152c-1.362-1.435-2.043-3.427-2.043-5.977
		c0-2.569,0.632-4.61,1.897-6.123c1.265-1.513,2.964-2.269,5.097-2.269c1.997,0,3.578,0.657,4.741,1.971
		c1.163,1.314,1.745,3.047,1.745,5.199v1.526h-10.979c0.048,1.871,0.521,3.292,1.418,4.261c0.896,0.97,2.159,1.455,3.788,1.455
		c1.716,0,3.412-0.359,5.09-1.076v2.152c-0.854,0.368-1.66,0.632-2.421,0.792C515.278,156.286,514.36,156.366,513.284,156.366z
		 M512.628,141.867c-1.279,0-2.3,0.417-3.061,1.251c-0.762,0.834-1.21,1.987-1.346,3.461h8.333c0-1.522-0.339-2.688-1.018-3.498
		C514.859,142.271,513.889,141.867,512.628,141.867z"/>
	<path fill="#2D3E50" d="M536.012,151.726c0,1.483-0.553,2.628-1.658,3.433c-1.104,0.805-2.656,1.207-4.653,1.207
		c-2.113,0-3.762-0.335-4.944-1.004v-2.239c0.766,0.388,1.588,0.693,2.465,0.916c0.878,0.224,1.724,0.335,2.538,0.335
		c1.26,0,2.229-0.201,2.908-0.604s1.018-1.016,1.018-1.84c0-0.62-0.269-1.151-0.807-1.593c-0.538-0.44-1.588-0.962-3.148-1.563
		c-1.483-0.553-2.538-1.035-3.163-1.447s-1.091-0.88-1.396-1.403c-0.306-0.523-0.459-1.149-0.459-1.876
		c0-1.299,0.528-2.324,1.586-3.076c1.057-0.751,2.506-1.127,4.348-1.127c1.716,0,3.394,0.349,5.032,1.047l-0.858,1.963
		c-1.6-0.659-3.049-0.989-4.349-0.989c-1.144,0-2.007,0.18-2.588,0.538c-0.582,0.359-0.873,0.854-0.873,1.483
		c0,0.427,0.109,0.79,0.327,1.091c0.219,0.301,0.569,0.587,1.055,0.857c0.484,0.272,1.415,0.665,2.792,1.179
		c1.891,0.688,3.168,1.381,3.832,2.079S536.012,150.67,536.012,151.726z"/>
</g>
<g>
	<path fill="#2D3E50" d="M203.845,25.701c-2.336,0-4.181,0.778-5.533,2.334s-2.029,3.687-2.029,6.392
		c0,2.783,0.652,4.932,1.956,6.449c1.304,1.518,3.163,2.276,5.577,2.276c1.483,0,3.175-0.266,5.075-0.8v2.167
		c-1.474,0.553-3.292,0.829-5.454,0.829c-3.131,0-5.548-0.95-7.249-2.851c-1.702-1.9-2.552-4.6-2.552-8.1
		c0-2.191,0.409-4.11,1.229-5.759c0.819-1.648,2.002-2.918,3.548-3.81c1.546-0.892,3.367-1.338,5.461-1.338
		c2.229,0,4.178,0.407,5.846,1.222l-1.047,2.123C207.063,26.079,205.454,25.701,203.845,25.701z"/>
	<path fill="#2D3E50" d="M229.998,28.827c0.708,0,1.343,0.059,1.905,0.175l-0.334,2.239c-0.66-0.145-1.241-0.218-1.745-0.218
		c-1.29,0-2.392,0.523-3.309,1.57c-0.916,1.047-1.374,2.351-1.374,3.912v8.551h-2.414V29.118h1.992l0.276,2.952h0.116
		c0.591-1.037,1.304-1.837,2.138-2.399C228.083,29.109,228.999,28.827,229.998,28.827z"/>
	<path fill="#2D3E50" d="M241.914,29.118h2.588l3.49,9.089c0.766,2.075,1.241,3.573,1.425,4.494h0.117
		c0.126-0.494,0.39-1.34,0.792-2.538c0.402-1.197,1.718-4.879,3.948-11.045h2.588l-6.849,18.149
		c-0.679,1.793-1.472,3.066-2.378,3.817c-0.907,0.751-2.019,1.127-3.337,1.127c-0.737,0-1.464-0.083-2.181-0.247V50.03
		c0.533,0.116,1.129,0.174,1.789,0.174c1.658,0,2.84-0.931,3.548-2.792l0.887-2.269L241.914,29.118z"/>
	<path fill="#2D3E50" d="M276.429,45.348c-1.038,0-1.985-0.192-2.843-0.575c-0.858-0.383-1.578-0.972-2.159-1.767h-0.175
		c0.117,0.931,0.175,1.813,0.175,2.646v6.559h-2.414V29.118h1.963l0.334,2.181h0.117c0.62-0.872,1.343-1.502,2.167-1.89
		c0.824-0.388,1.77-0.582,2.836-0.582c2.113,0,3.745,0.723,4.893,2.167c1.149,1.445,1.724,3.471,1.724,6.079
		c0,2.618-0.584,4.651-1.752,6.101C280.125,44.623,278.503,45.348,276.429,45.348z M276.08,30.878c-1.628,0-2.807,0.451-3.534,1.353
		c-0.727,0.901-1.101,2.336-1.12,4.304v0.538c0,2.24,0.373,3.842,1.12,4.806c0.747,0.965,1.944,1.447,3.592,1.447
		c1.376,0,2.456-0.558,3.236-1.672s1.171-2.651,1.171-4.61c0-1.987-0.391-3.512-1.171-4.574S277.495,30.878,276.08,30.878z"/>
	<path fill="#2D3E50" d="M301.97,43.355c0.427,0,0.839-0.031,1.236-0.094s0.713-0.128,0.945-0.196v1.847
		c-0.262,0.126-0.647,0.23-1.156,0.313c-0.509,0.082-0.967,0.124-1.374,0.124c-3.083,0-4.624-1.624-4.624-4.872v-9.481h-2.283
		v-1.164l2.283-1.003l1.018-3.403h1.396v3.694h4.624v1.876h-4.624v9.38c0,0.96,0.228,1.697,0.683,2.21
		C300.55,43.099,301.175,43.355,301.97,43.355z"/>
	<path fill="#2D3E50" d="M330.655,37.073c0,2.599-0.654,4.627-1.963,6.086c-1.309,1.459-3.117,2.189-5.425,2.189
		c-1.425,0-2.69-0.334-3.795-1.003c-1.105-0.669-1.959-1.629-2.56-2.879c-0.602-1.251-0.901-2.714-0.901-4.392
		c0-2.598,0.649-4.622,1.948-6.071s3.103-2.174,5.41-2.174c2.229,0,4.001,0.742,5.314,2.225S330.655,34.542,330.655,37.073z
		 M318.512,37.073c0,2.036,0.407,3.587,1.222,4.654s2.012,1.6,3.592,1.6s2.779-0.531,3.6-1.592c0.818-1.062,1.229-2.615,1.229-4.661
		c0-2.026-0.41-3.565-1.229-4.617c-0.82-1.052-2.029-1.578-3.629-1.578c-1.58,0-2.772,0.519-3.577,1.556
		C318.915,33.471,318.512,35.018,318.512,37.073z"/>
	<path fill="#2D3E50" d="M353.914,25.701c-2.336,0-4.181,0.778-5.533,2.334s-2.028,3.687-2.028,6.392
		c0,2.783,0.651,4.932,1.956,6.449c1.304,1.518,3.162,2.276,5.576,2.276c1.483,0,3.176-0.266,5.075-0.8v2.167
		c-1.474,0.553-3.291,0.829-5.453,0.829c-3.132,0-5.548-0.95-7.249-2.851c-1.701-1.9-2.553-4.6-2.553-8.1
		c0-2.191,0.41-4.11,1.229-5.759c0.819-1.648,2.002-2.918,3.548-3.81c1.547-0.892,3.367-1.338,5.461-1.338
		c2.229,0,4.179,0.407,5.846,1.222l-1.047,2.123C357.132,26.079,355.523,25.701,353.914,25.701z"/>
	<path fill="#2D3E50" d="M375.065,29.118v10.34c0,1.299,0.296,2.269,0.887,2.908c0.592,0.64,1.518,0.96,2.778,0.96
		c1.667,0,2.887-0.456,3.657-1.367c0.771-0.911,1.156-2.399,1.156-4.464v-8.376h2.414v15.938h-1.993l-0.349-2.138h-0.131
		c-0.494,0.785-1.181,1.387-2.058,1.803c-0.878,0.417-1.879,0.625-3.003,0.625c-1.939,0-3.391-0.46-4.355-1.382
		c-0.965-0.921-1.447-2.395-1.447-4.421V29.118H375.065z"/>
	<path fill="#2D3E50" d="M407.908,28.827c0.707,0,1.342,0.059,1.904,0.175l-0.334,2.239c-0.659-0.145-1.241-0.218-1.745-0.218
		c-1.29,0-2.393,0.523-3.309,1.57c-0.916,1.047-1.374,2.351-1.374,3.912v8.551h-2.414V29.118h1.992l0.276,2.952h0.116
		c0.592-1.037,1.304-1.837,2.138-2.399C405.993,29.109,406.909,28.827,407.908,28.827z"/>
	<path fill="#2D3E50" d="M429.625,28.827c0.707,0,1.342,0.059,1.904,0.175l-0.334,2.239c-0.659-0.145-1.241-0.218-1.745-0.218
		c-1.29,0-2.393,0.523-3.309,1.57c-0.916,1.047-1.374,2.351-1.374,3.912v8.551h-2.414V29.118h1.992l0.276,2.952h0.116
		c0.592-1.037,1.304-1.837,2.138-2.399C427.71,29.109,428.626,28.827,429.625,28.827z"/>
	<path fill="#2D3E50" d="M450.804,45.348c-2.356,0-4.216-0.717-5.577-2.152c-1.362-1.435-2.043-3.427-2.043-5.977
		c0-2.569,0.632-4.61,1.897-6.122c1.265-1.513,2.964-2.269,5.097-2.269c1.997,0,3.578,0.657,4.741,1.971
		c1.163,1.314,1.745,3.046,1.745,5.199v1.527h-10.979c0.048,1.871,0.521,3.292,1.418,4.261c0.896,0.97,2.159,1.454,3.788,1.454
		c1.716,0,3.412-0.358,5.09-1.076v2.152c-0.854,0.369-1.66,0.633-2.421,0.792C452.798,45.268,451.88,45.348,450.804,45.348z
		 M450.149,30.849c-1.279,0-2.3,0.417-3.061,1.251c-0.762,0.833-1.21,1.987-1.346,3.461h8.333c0-1.522-0.339-2.688-1.018-3.498
		S451.41,30.849,450.149,30.849z"/>
	<path fill="#2D3E50" d="M481.247,45.057V34.746c0-1.299-0.296-2.269-0.887-2.909c-0.592-0.64-1.518-0.959-2.777-0.959
		c-1.668,0-2.89,0.451-3.665,1.353c-0.775,0.901-1.163,2.39-1.163,4.464v8.362h-2.414V29.118h1.963l0.393,2.181h0.116
		c0.495-0.785,1.188-1.394,2.08-1.825c0.892-0.432,1.886-0.647,2.981-0.647c1.919,0,3.363,0.463,4.333,1.389
		s1.454,2.407,1.454,4.442v10.398H481.247z"/>
	<path fill="#2D3E50" d="M504.549,45.348c-2.308,0-4.094-0.71-5.358-2.131c-1.266-1.42-1.897-3.429-1.897-6.027
		c0-2.667,0.642-4.727,1.927-6.181c1.284-1.454,3.114-2.182,5.489-2.182c0.766,0,1.532,0.083,2.298,0.248s1.367,0.359,1.803,0.582
		l-0.741,2.05c-0.533-0.213-1.115-0.39-1.745-0.531c-0.63-0.14-1.188-0.211-1.672-0.211c-3.238,0-4.857,2.065-4.857,6.195
		c0,1.958,0.395,3.461,1.185,4.508c0.791,1.047,1.961,1.57,3.513,1.57c1.328,0,2.69-0.286,4.086-0.858v2.138
		C507.511,45.071,506.168,45.348,504.549,45.348z"/>
	<path fill="#2D3E50" d="M519.388,29.118h2.588l3.49,9.089c0.767,2.075,1.241,3.573,1.426,4.494h0.116
		c0.126-0.494,0.39-1.34,0.792-2.538c0.402-1.197,1.719-4.879,3.948-11.045h2.589l-6.85,18.149
		c-0.679,1.793-1.471,3.066-2.377,3.817c-0.907,0.751-2.02,1.127-3.338,1.127c-0.737,0-1.464-0.083-2.182-0.247V50.03
		c0.533,0.116,1.13,0.174,1.789,0.174c1.658,0,2.841-0.931,3.548-2.792l0.888-2.269L519.388,29.118z"/>
</g>
<g>
	<g enable-background="new    ">
		<path fill="#2D3E50" d="M35.166,162.773v-18.991h7.116c1.476,0,2.619,0.188,3.5,0.569c0.88,0.381,1.57,0.978,2.045,1.786
			c0.501,0.81,0.739,1.618,0.739,2.499c0,0.808-0.215,1.594-0.666,2.309c-0.43,0.713-1.095,1.309-2.001,1.736
			c1.144,0.335,2.024,0.904,2.643,1.715c0.619,0.809,0.929,1.786,0.929,2.878c0,0.907-0.191,1.716-0.571,2.503
			c-0.382,0.782-0.833,1.332-1.405,1.783c-0.57,0.405-1.237,0.713-2.094,0.927c-0.832,0.216-1.833,0.312-3.046,0.312L35.166,162.773
			L35.166,162.773z M37.689,151.753h4.116c1.119,0,1.904-0.072,2.404-0.214c0.619-0.189,1.119-0.5,1.428-0.927
			c0.311-0.43,0.5-1.002,0.5-1.644c0-0.618-0.167-1.189-0.475-1.642c-0.311-0.478-0.738-0.812-1.31-1.001s-1.522-0.286-2.903-0.286
			h-3.785v5.713H37.689z M37.689,160.536h4.735c0.81,0,1.382-0.023,1.714-0.096c0.596-0.093,1.071-0.283,1.476-0.522
			c0.382-0.238,0.715-0.596,0.977-1.073c0.262-0.474,0.381-0.998,0.381-1.594c0-0.713-0.19-1.308-0.524-1.831
			c-0.333-0.523-0.88-0.905-1.499-1.095c-0.667-0.214-1.57-0.311-2.785-0.311h-4.45v6.521H37.689z"/>
		<path fill="#2D3E50" d="M52.564,168.081l-0.238-2.189c0.5,0.12,0.977,0.213,1.333,0.213c0.523,0,0.929-0.093,1.237-0.235
			c0.312-0.168,0.571-0.406,0.786-0.714c0.167-0.216,0.379-0.81,0.714-1.737c0.024-0.122,0.119-0.311,0.215-0.572l-5.213-13.781
			h2.545l2.858,7.949c0.38,1.001,0.712,2.048,0.999,3.189c0.285-1.07,0.596-2.117,0.975-3.141l2.93-8.021h2.332l-5.237,13.994
			c-0.571,1.498-0.999,2.546-1.31,3.117c-0.403,0.784-0.903,1.334-1.429,1.69c-0.523,0.333-1.188,0.523-1.902,0.523
			C53.636,168.343,53.135,168.273,52.564,168.081z"/>
		<path fill="#2D3E50" d="M71.034,160.679l0.333,2.048c-0.666,0.118-1.237,0.212-1.737,0.212c-0.832,0-1.498-0.118-1.975-0.403
			s-0.785-0.619-1-1.071c-0.191-0.429-0.286-1.333-0.286-2.736v-7.903h-1.713v-1.808h1.713v-3.404l2.309-1.402v4.807h2.333v1.808
			h-2.333v8.043c0,0.669,0.024,1.097,0.12,1.289c0.094,0.19,0.213,0.332,0.403,0.476c0.191,0.118,0.429,0.165,0.81,0.165
			C70.25,160.774,70.581,160.75,71.034,160.679z"/>
		<path fill="#2D3E50" d="M82.72,158.346l2.403,0.31c-0.38,1.404-1.095,2.499-2.118,3.286c-1.024,0.785-2.332,1.142-3.926,1.142
			c-2.023,0-3.618-0.621-4.761-1.88c-1.191-1.239-1.785-2.953-1.785-5.214c0-2.308,0.594-4.118,1.785-5.401
			c1.188-1.288,2.737-1.905,4.641-1.905c1.833,0,3.332,0.617,4.523,1.882c1.142,1.236,1.737,3.021,1.737,5.261
			c0,0.117,0,0.331,0,0.614H74.961c0.095,1.503,0.5,2.692,1.286,3.454c0.784,0.785,1.713,1.215,2.878,1.215
			c0.833,0,1.595-0.218,2.19-0.691C81.888,160.06,82.387,159.346,82.72,158.346z M75.056,154.563h7.664
			c-0.095-1.144-0.405-2.024-0.881-2.594c-0.737-0.907-1.714-1.334-2.903-1.334c-1.071,0-1.977,0.38-2.714,1.071
			C75.555,152.419,75.152,153.398,75.056,154.563z"/>
		<path fill="#2D3E50" d="M90.216,162.773h-2.141v-18.991h2.331v6.758c1.001-1.239,2.238-1.833,3.784-1.833
			c0.835,0,1.644,0.168,2.406,0.501c0.737,0.332,1.379,0.808,1.879,1.428c0.501,0.619,0.881,1.38,1.143,2.236
			c0.262,0.857,0.404,1.81,0.404,2.807c0,2.381-0.595,4.191-1.736,5.454c-1.142,1.284-2.547,1.928-4.214,1.928
			c-1.618,0-2.903-0.69-3.832-2.024v1.737H90.216z M90.17,155.776c0,1.644,0.213,2.833,0.689,3.595
			c0.738,1.188,1.713,1.809,2.999,1.809c1.023,0,1.904-0.429,2.643-1.333c0.737-0.881,1.118-2.215,1.118-3.95
			c0-1.812-0.332-3.119-1.07-4c-0.715-0.834-1.571-1.283-2.596-1.283c-1.023,0-1.904,0.427-2.642,1.333
			C90.55,152.826,90.17,154.134,90.17,155.776z"/>
		<path fill="#2D3E50" d="M111.783,161.083c-0.882,0.737-1.691,1.238-2.5,1.569c-0.81,0.311-1.643,0.477-2.547,0.477
			c-1.499,0-2.689-0.379-3.499-1.118c-0.81-0.737-1.215-1.688-1.215-2.833c0-0.69,0.167-1.284,0.477-1.832
			c0.311-0.569,0.714-1.001,1.216-1.333c0.498-0.335,1.069-0.594,1.688-0.784c0.476-0.119,1.143-0.237,2.046-0.333
			c1.881-0.215,3.285-0.5,4.143-0.812c0-0.307,0-0.521,0-0.618c0-0.928-0.214-1.618-0.667-1.997
			c-0.594-0.524-1.499-0.786-2.642-0.786c-1.095,0-1.904,0.188-2.429,0.571c-0.522,0.38-0.903,1.071-1.141,2.021l-2.286-0.307
			c0.214-0.977,0.571-1.784,1.022-2.38c0.478-0.596,1.144-1.072,2.048-1.381c0.905-0.311,1.928-0.501,3.119-0.501
			c1.189,0,2.117,0.12,2.879,0.406c0.738,0.285,1.286,0.616,1.618,1.023c0.333,0.403,0.595,0.926,0.714,1.594
			c0.071,0.403,0.12,1.118,0.12,2.143v3.117c0,2.188,0.071,3.522,0.165,4.119c0.097,0.592,0.287,1.118,0.596,1.642h-2.429
			C112.019,162.297,111.853,161.701,111.783,161.083z M111.615,155.872c-0.833,0.334-2.119,0.617-3.809,0.881
			c-0.975,0.117-1.618,0.285-2.021,0.476c-0.405,0.191-0.716,0.428-0.906,0.739c-0.213,0.332-0.31,0.688-0.31,1.117
			c0,0.618,0.239,1.143,0.714,1.572c0.477,0.402,1.144,0.617,2.048,0.617c0.903,0,1.689-0.19,2.404-0.595
			c0.689-0.405,1.213-0.929,1.521-1.618c0.239-0.524,0.383-1.309,0.383-2.333v-0.832h-0.024V155.872z"/>
		<path fill="#2D3E50" d="M117.542,162.773v-18.991h2.332v18.991H117.542z"/>
		<path fill="#2D3E50" d="M123.419,162.773v-18.991h2.334v18.991H123.419z"/>
	</g>
	<g>
		<path fill="#2D3E50" d="M80.459,23.49c-29.324,0-53.053,23.754-53.053,53.053c0,29.298,23.753,53.052,53.053,53.052
			c29.299,0,53.053-23.754,53.053-53.052C133.512,47.244,109.783,23.49,80.459,23.49z M80.459,122.242
			c-25.23,0-45.65-20.471-45.65-45.651c0-25.182,20.468-45.65,45.65-45.65c25.182,0,45.649,20.469,45.649,45.65
			C126.109,101.771,105.688,122.242,80.459,122.242z"/>
		<circle fill="#FFFFFF" cx="80.459" cy="76.542" r="45.65"/>
	</g>
</g>
</svg>
