<?xml version="1.0" encoding="utf-8"?>
<!-- Generator: Adobe Illustrator 15.0.0, SVG Export Plug-In . SVG Version: 6.00 Build 0)  -->
<!DOCTYPE svg PUBLIC "-//W3C//DTD SVG 1.1//EN" "http://www.w3.org/Graphics/SVG/1.1/DTD/svg11.dtd">
<svg version="1.1" id="Ebene_1" xmlns="http://www.w3.org/2000/svg" xmlns:xlink="http://www.w3.org/1999/xlink" x="0px" y="0px"
	 width="570.332px" height="187.902px" viewBox="0 0 570.332 187.902" enable-background="new 0 0 570.332 187.902"
	 xml:space="preserve">
<rect x="-1.701" y="-1.701" fill="#2D3E50" width="573.733" height="191.304"/>
<rect x="4.906" y="4.857" fill="#FFFFFF" stroke="#2D3E50" stroke-width="5" stroke-miterlimit="10" width="560.52" height="178.188"/>
<g>
	<g>
		<path fill="#2D3E50" d="M223.62,69.424c-5.284,0-9.455,1.759-12.513,5.278s-4.587,8.336-4.587,14.453
			c0,6.292,1.474,11.153,4.423,14.584c2.949,3.431,7.152,5.146,12.611,5.146c3.354,0,7.179-0.603,11.477-1.809v4.899
			c-3.333,1.25-7.443,1.875-12.332,1.875c-7.082,0-12.545-2.148-16.393-6.445c-3.848-4.296-5.771-10.402-5.771-18.316
			c0-4.954,0.926-9.295,2.779-13.022c1.853-3.727,4.527-6.599,8.024-8.616c3.496-2.017,7.612-3.025,12.348-3.025
			c5.042,0,9.449,0.921,13.22,2.762l-2.368,4.801C230.898,70.279,227.259,69.424,223.62,69.424z"/>
		<path fill="#2D3E50" d="M270.769,113.192l-1.085-5.13h-0.263c-1.798,2.258-3.59,3.787-5.376,4.587c-1.787,0.8-4.018,1.2-6.692,1.2
			c-3.574,0-6.375-0.921-8.402-2.762c-2.028-1.842-3.042-4.461-3.042-7.859c0-7.278,5.82-11.093,17.461-11.444l6.116-0.197v-2.236
			c0-2.828-0.608-4.916-1.825-6.265c-1.217-1.348-3.163-2.022-5.837-2.022c-3.003,0-6.401,0.921-10.194,2.763l-1.677-4.176
			c1.776-0.965,3.721-1.721,5.837-2.269c2.115-0.548,4.236-0.822,6.363-0.822c4.296,0,7.481,0.954,9.553,2.861
			s3.107,4.965,3.107,9.175v24.597H270.769z M258.438,109.345c3.397,0,6.067-0.931,8.007-2.795c1.94-1.863,2.911-4.472,2.911-7.826
			v-3.256l-5.459,0.23c-4.341,0.153-7.47,0.828-9.388,2.022c-1.919,1.195-2.877,3.053-2.877,5.574c0,1.973,0.597,3.475,1.792,4.505
			C254.617,108.83,256.289,109.345,258.438,109.345z"/>
		<path fill="#2D3E50" d="M313.214,103.36c0,3.354-1.248,5.941-3.748,7.761c-2.498,1.82-6.006,2.729-10.523,2.729
			c-4.779,0-8.506-0.756-11.18-2.269v-5.064c1.73,0.877,3.59,1.567,5.574,2.071c1.982,0.505,3.896,0.756,5.738,0.756
			c2.85,0,5.041-0.455,6.576-1.364s2.303-2.296,2.303-4.16c0-1.402-0.609-2.603-1.826-3.601s-3.59-2.176-7.119-3.535
			c-3.354-1.25-5.738-2.34-7.152-3.272c-1.414-0.932-2.467-1.989-3.156-3.173c-0.691-1.184-1.037-2.598-1.037-4.242
			c0-2.937,1.195-5.255,3.586-6.955c2.389-1.699,5.666-2.549,9.832-2.549c3.879,0,7.672,0.79,11.377,2.368l-1.939,4.439
			c-3.617-1.491-6.895-2.236-9.832-2.236c-2.588,0-4.539,0.406-5.854,1.217c-1.316,0.812-1.973,1.93-1.973,3.354
			c0,0.965,0.246,1.787,0.738,2.466c0.494,0.68,1.289,1.327,2.385,1.94c1.096,0.614,3.201,1.502,6.314,2.664
			c4.273,1.557,7.162,3.124,8.664,4.703C312.464,98.986,313.214,100.971,313.214,103.36z"/>
		<path fill="#2D3E50" d="M350.664,113.192V89.877c0-2.938-0.67-5.13-2.006-6.577c-1.338-1.447-3.432-2.17-6.281-2.17
			c-3.793,0-6.561,1.031-8.303,3.091s-2.615,5.437-2.615,10.128v18.843H326V62.025h5.459v15.488c0,1.864-0.088,3.409-0.262,4.637
			h0.328c1.074-1.731,2.604-3.096,4.588-4.094c1.982-0.997,4.246-1.496,6.791-1.496c4.406,0,7.711,1.047,9.914,3.141
			c2.203,2.094,3.305,5.42,3.305,9.98v23.512H350.664z"/>
		<path fill="#2D3E50" d="M388.011,76.56c4.736,0,8.412,1.617,11.033,4.851c2.619,3.234,3.93,7.81,3.93,13.729
			c0,5.919-1.322,10.518-3.963,13.795c-2.643,3.277-6.309,4.916-11,4.916c-2.346,0-4.488-0.433-6.428-1.299
			c-1.941-0.866-3.568-2.198-4.885-3.996h-0.395l-1.15,4.637h-3.914V62.025h5.459v12.43c0,2.784-0.088,5.284-0.262,7.498h0.262
			C379.242,78.357,383.013,76.56,388.011,76.56z M387.222,81.13c-3.727,0-6.412,1.069-8.057,3.206
			c-1.645,2.138-2.467,5.738-2.467,10.803c0,5.064,0.844,8.687,2.533,10.868c1.688,2.182,4.395,3.272,8.121,3.272
			c3.355,0,5.854-1.222,7.498-3.667s2.467-5.958,2.467-10.54c0-4.691-0.822-8.188-2.467-10.49
			C393.207,82.281,390.664,81.13,387.222,81.13z"/>
		<path fill="#2D3E50" d="M438.58,113.192l-1.084-5.13h-0.264c-1.797,2.258-3.59,3.787-5.377,4.587c-1.787,0.8-4.018,1.2-6.691,1.2
			c-3.574,0-6.375-0.921-8.402-2.762c-2.027-1.842-3.041-4.461-3.041-7.859c0-7.278,5.82-11.093,17.461-11.444l6.117-0.197v-2.236
			c0-2.828-0.609-4.916-1.826-6.265c-1.217-1.348-3.162-2.022-5.836-2.022c-3.004,0-6.402,0.921-10.195,2.763l-1.676-4.176
			c1.775-0.965,3.721-1.721,5.836-2.269s4.236-0.822,6.363-0.822c4.297,0,7.482,0.954,9.553,2.861
			c2.072,1.907,3.107,4.965,3.107,9.175v24.597H438.58z M426.25,109.345c3.396,0,6.066-0.931,8.006-2.795
			c1.941-1.863,2.91-4.472,2.91-7.826v-3.256l-5.457,0.23c-4.342,0.153-7.471,0.828-9.389,2.022
			c-1.92,1.195-2.879,3.053-2.879,5.574c0,1.973,0.598,3.475,1.793,4.505C422.429,108.83,424.099,109.345,426.25,109.345z"/>
		<path fill="#2D3E50" d="M472.181,113.85c-5.219,0-9.258-1.605-12.117-4.817c-2.861-3.211-4.293-7.755-4.293-13.63
			c0-6.029,1.453-10.688,4.357-13.976c2.904-3.288,7.043-4.933,12.414-4.933c1.732,0,3.465,0.187,5.195,0.559
			c1.732,0.373,3.092,0.812,4.078,1.315l-1.678,4.637c-1.205-0.482-2.521-0.882-3.945-1.2c-1.426-0.318-2.686-0.477-3.781-0.477
			c-7.322,0-10.984,4.669-10.984,14.009c0,4.429,0.895,7.826,2.682,10.194c1.785,2.368,4.434,3.552,7.941,3.552
			c3.002,0,6.082-0.646,9.24-1.94v4.834C478.878,113.225,475.841,113.85,472.181,113.85z"/>
		<path fill="#2D3E50" d="M499.138,94.745c0.943-1.337,2.379-3.091,4.309-5.262l11.641-12.332h6.479l-14.602,15.357l15.621,20.684
			h-6.609L503.25,96.159l-4.111,3.551v13.482h-5.393V62.025h5.393v27.129c0,1.206-0.088,3.069-0.262,5.59H499.138z"/>
	</g>
	<g>
		<path fill="#2D3E50" d="M208.308,157.482h-2.22v-14.277c0-1.187,0.036-2.311,0.109-3.371c-0.192,0.192-0.406,0.393-0.644,0.603
			c-0.237,0.21-1.324,1.101-3.261,2.672l-1.206-1.562l5.303-4.097h1.918V157.482z"/>
		<path fill="#2D3E50" d="M231.532,147.439c0,3.463-0.546,6.047-1.637,7.756c-1.092,1.707-2.761,2.563-5.008,2.563
			c-2.156,0-3.795-0.875-4.919-2.625c-1.124-1.748-1.686-4.313-1.686-7.693c0-3.489,0.543-6.079,1.63-7.769
			c1.087-1.69,2.745-2.535,4.974-2.535c2.174,0,3.825,0.882,4.953,2.645C230.968,141.543,231.532,144.096,231.532,147.439z
			 M220.584,147.439c0,2.914,0.343,5.035,1.028,6.365c0.685,1.328,1.776,1.992,3.275,1.992c1.516,0,2.614-0.672,3.295-2.02
			s1.021-3.461,1.021-6.338c0-2.877-0.34-4.985-1.021-6.323c-0.681-1.338-1.779-2.007-3.295-2.007c-1.499,0-2.59,0.66-3.275,1.98
			S220.584,144.525,220.584,147.439z"/>
		<path fill="#2D3E50" d="M244.85,143.424c0,2.083-0.35,3.656-1.048,4.72c-0.699,1.064-1.724,1.598-3.076,1.598
			c-1.279,0-2.272-0.544-2.98-1.631c-0.708-1.088-1.062-2.649-1.062-4.687c0-2.073,0.34-3.635,1.021-4.686
			c0.68-1.051,1.688-1.576,3.021-1.576c1.325,0,2.343,0.544,3.056,1.631S244.85,141.424,244.85,143.424z M238.574,143.424
			c0,1.554,0.169,2.718,0.507,3.494s0.886,1.165,1.644,1.165c1.498,0,2.247-1.553,2.247-4.659c0-3.087-0.749-4.631-2.247-4.631
			c-0.758,0-1.306,0.383-1.644,1.151C238.743,140.711,238.574,141.872,238.574,143.424z M253.386,137.451l-11.112,20.031h-2.014
			l11.112-20.031H253.386z M256.92,151.455c0,2.072-0.349,3.641-1.048,4.705s-1.724,1.598-3.076,1.598
			c-1.297,0-2.295-0.545-2.994-1.631c-0.699-1.088-1.048-2.645-1.048-4.672c0-2.074,0.34-3.637,1.021-4.688
			c0.68-1.05,1.688-1.575,3.021-1.575c1.297,0,2.309,0.536,3.035,1.61C256.558,147.875,256.92,149.425,256.92,151.455z
			 M250.631,151.455c0,1.561,0.169,2.729,0.507,3.5c0.338,0.771,0.891,1.158,1.658,1.158c0.768,0,1.333-0.381,1.699-1.145
			c0.365-0.762,0.548-1.934,0.548-3.514c0-1.563-0.183-2.721-0.548-3.475c-0.366-0.754-0.932-1.13-1.699-1.13
			c-0.767,0-1.32,0.376-1.658,1.13C250.8,148.734,250.631,149.892,250.631,151.455z"/>
		<path fill="#2D3E50" d="M272.526,138.396c0-0.521,0.128-0.902,0.384-1.144c0.255-0.242,0.575-0.363,0.959-0.363
			c0.365,0,0.68,0.124,0.945,0.37c0.265,0.247,0.397,0.626,0.397,1.137c0,0.512-0.133,0.893-0.397,1.144
			c-0.265,0.251-0.58,0.377-0.945,0.377c-0.384,0-0.704-0.125-0.959-0.377C272.654,139.289,272.526,138.908,272.526,138.396z
			 M274.993,157.482h-2.274v-15.017h2.274V157.482z"/>
		<path fill="#2D3E50" d="M292.421,157.482v-9.714c0-1.224-0.279-2.138-0.836-2.74c-0.558-0.603-1.43-0.905-2.617-0.905
			c-1.571,0-2.722,0.425-3.453,1.275c-0.73,0.85-1.096,2.252-1.096,4.206v7.878h-2.274v-15.017h1.85l0.37,2.055h0.109
			c0.466-0.74,1.119-1.313,1.959-1.719c0.841-0.407,1.777-0.61,2.81-0.61c1.809,0,3.169,0.436,4.083,1.309
			c0.913,0.872,1.37,2.267,1.37,4.185v9.797H292.421z"/>
		<path fill="#2D3E50" d="M311.658,137.451h5.659c2.658,0,4.581,0.397,5.769,1.192c1.187,0.795,1.781,2.051,1.781,3.768
			c0,1.188-0.332,2.167-0.994,2.938c-0.662,0.772-1.628,1.272-2.897,1.501v0.137c3.042,0.521,4.563,2.12,4.563,4.796
			c0,1.791-0.605,3.188-1.815,4.193c-1.211,1.004-2.902,1.506-5.076,1.506h-6.988V137.451z M313.987,146.028h3.837
			c1.645,0,2.827-0.258,3.549-0.774c0.722-0.516,1.082-1.386,1.082-2.61c0-1.124-0.402-1.934-1.206-2.432
			c-0.804-0.498-2.082-0.747-3.836-0.747h-3.426V146.028z M313.987,148.001v7.494h4.18c1.616,0,2.834-0.313,3.651-0.939
			c0.817-0.625,1.226-1.604,1.226-2.938c0-1.242-0.417-2.156-1.253-2.74c-0.836-0.585-2.108-0.877-3.816-0.877H313.987z"/>
		<path fill="#2D3E50" d="M329.442,142.465h2.438l3.289,8.563c0.722,1.955,1.169,3.367,1.343,4.234h0.109
			c0.119-0.467,0.367-1.264,0.747-2.391c0.379-1.129,1.619-4.598,3.72-10.407h2.438l-6.453,17.101
			c-0.64,1.689-1.386,2.889-2.24,3.596s-1.902,1.063-3.145,1.063c-0.694,0-1.379-0.078-2.056-0.234v-1.822
			c0.503,0.111,1.064,0.166,1.686,0.166c1.563,0,2.677-0.877,3.344-2.631l0.836-2.139L329.442,142.465z"/>
		<path fill="#2D3E50" d="M353.145,155.878c0.402,0,0.79-0.029,1.165-0.088c0.374-0.059,0.671-0.121,0.891-0.186v1.74
			c-0.247,0.119-0.61,0.217-1.09,0.295s-0.911,0.117-1.295,0.117c-2.904,0-4.356-1.531-4.356-4.592v-8.933h-2.151v-1.096
			l2.151-0.945l0.959-3.206h1.315v3.48h4.357v1.768h-4.357v8.837c0,0.904,0.214,1.6,0.644,2.084S352.396,155.878,353.145,155.878z"
			/>
		<path fill="#2D3E50" d="M366.874,157.757c-2.219,0-3.971-0.676-5.254-2.029c-1.283-1.352-1.925-3.229-1.925-5.631
			c0-2.42,0.596-4.344,1.787-5.769c1.192-1.425,2.793-2.137,4.803-2.137c1.882,0,3.371,0.619,4.467,1.856
			c1.097,1.238,1.645,2.871,1.645,4.899v1.438h-10.345c0.045,1.764,0.49,3.102,1.336,4.016c0.845,0.914,2.034,1.369,3.569,1.369
			c1.616,0,3.215-0.338,4.795-1.014v2.027c-0.804,0.348-1.564,0.598-2.281,0.748S367.888,157.757,366.874,157.757z M366.257,144.096
			c-1.206,0-2.167,0.393-2.884,1.179c-0.718,0.785-1.14,1.872-1.268,3.26h7.851c0-1.434-0.319-2.531-0.959-3.295
			C368.358,144.478,367.445,144.096,366.257,144.096z"/>
		<path fill="#2D3E50" d="M385.59,142.219c1.973,0,3.505,0.674,4.597,2.021c1.092,1.348,1.638,3.254,1.638,5.721
			s-0.551,4.383-1.651,5.748s-2.629,2.049-4.583,2.049c-0.978,0-1.87-0.182-2.679-0.543c-0.809-0.359-1.486-0.914-2.035-1.664
			h-0.164l-0.479,1.932h-1.631v-21.319h2.274v5.179c0,1.16-0.036,2.202-0.109,3.124h0.109
			C381.936,142.968,383.507,142.219,385.59,142.219z M385.261,144.123c-1.553,0-2.672,0.445-3.356,1.335
			c-0.686,0.891-1.028,2.392-1.028,4.502c0,2.109,0.352,3.619,1.056,4.527c0.703,0.91,1.831,1.363,3.384,1.363
			c1.397,0,2.439-0.508,3.124-1.527c0.686-1.018,1.028-2.482,1.028-4.391c0-1.955-0.343-3.412-1.028-4.371
			C387.755,144.603,386.696,144.123,385.261,144.123z"/>
		<path fill="#2D3E50" d="M407.362,157.482l-0.452-2.137H406.8c-0.749,0.941-1.496,1.578-2.24,1.91
			c-0.745,0.334-1.674,0.502-2.789,0.502c-1.488,0-2.655-0.385-3.5-1.152c-0.846-0.768-1.268-1.857-1.268-3.273
			c0-3.033,2.425-4.623,7.275-4.77l2.549-0.082v-0.932c0-1.178-0.254-2.048-0.761-2.609c-0.507-0.562-1.317-0.843-2.432-0.843
			c-1.252,0-2.668,0.384-4.248,1.152l-0.698-1.741c0.739-0.402,1.55-0.717,2.432-0.945c0.882-0.229,1.766-0.343,2.651-0.343
			c1.79,0,3.117,0.397,3.98,1.192c0.863,0.795,1.295,2.069,1.295,3.823v10.248H407.362z M402.223,155.878
			c1.416,0,2.528-0.387,3.337-1.164c0.809-0.775,1.213-1.863,1.213-3.26v-1.357l-2.274,0.096c-1.809,0.064-3.113,0.346-3.912,0.844
			c-0.8,0.498-1.199,1.271-1.199,2.322c0,0.822,0.249,1.447,0.747,1.877S401.329,155.878,402.223,155.878z"/>
		<path fill="#2D3E50" d="M418.336,157.482h-2.274v-21.319h2.274V157.482z"/>
		<path fill="#2D3E50" d="M427.763,157.482h-2.274v-21.319h2.274V157.482z"/>
		<path fill="#2D3E50" d="M444.875,137.451h5.659c2.658,0,4.581,0.397,5.769,1.192c1.187,0.795,1.781,2.051,1.781,3.768
			c0,1.188-0.332,2.167-0.994,2.938c-0.662,0.772-1.628,1.272-2.897,1.501v0.137c3.042,0.521,4.563,2.12,4.563,4.796
			c0,1.791-0.605,3.188-1.815,4.193c-1.211,1.004-2.902,1.506-5.076,1.506h-6.988V137.451z M447.205,146.028h3.837
			c1.645,0,2.827-0.258,3.549-0.774c0.722-0.516,1.082-1.386,1.082-2.61c0-1.124-0.402-1.934-1.206-2.432
			c-0.804-0.498-2.082-0.747-3.836-0.747h-3.426V146.028z M447.205,148.001v7.494h4.18c1.616,0,2.834-0.313,3.651-0.939
			c0.817-0.625,1.226-1.604,1.226-2.938c0-1.242-0.417-2.156-1.253-2.74c-0.836-0.585-2.108-0.877-3.816-0.877H447.205z"/>
		<path fill="#2D3E50" d="M462.66,142.465h2.438l3.289,8.563c0.722,1.955,1.169,3.367,1.343,4.234h0.109
			c0.119-0.467,0.367-1.264,0.747-2.391c0.379-1.129,1.619-4.598,3.72-10.407h2.438l-6.453,17.101
			c-0.64,1.689-1.386,2.889-2.24,3.596s-1.902,1.063-3.145,1.063c-0.694,0-1.379-0.078-2.056-0.234v-1.822
			c0.503,0.111,1.064,0.166,1.686,0.166c1.563,0,2.677-0.877,3.344-2.631l0.836-2.139L462.66,142.465z"/>
		<path fill="#2D3E50" d="M486.363,155.878c0.402,0,0.79-0.029,1.165-0.088c0.374-0.059,0.671-0.121,0.891-0.186v1.74
			c-0.247,0.119-0.61,0.217-1.09,0.295s-0.911,0.117-1.295,0.117c-2.904,0-4.356-1.531-4.356-4.592v-8.933h-2.151v-1.096
			l2.151-0.945l0.959-3.206h1.315v3.48h4.357v1.768h-4.357v8.837c0,0.904,0.214,1.6,0.644,2.084S485.614,155.878,486.363,155.878z"
			/>
		<path fill="#2D3E50" d="M500.091,157.757c-2.219,0-3.971-0.676-5.254-2.029c-1.283-1.352-1.925-3.229-1.925-5.631
			c0-2.42,0.596-4.344,1.787-5.769c1.192-1.425,2.793-2.137,4.803-2.137c1.882,0,3.371,0.619,4.467,1.856
			c1.097,1.238,1.645,2.871,1.645,4.899v1.438h-10.345c0.045,1.764,0.49,3.102,1.336,4.016c0.845,0.914,2.034,1.369,3.569,1.369
			c1.616,0,3.215-0.338,4.795-1.014v2.027c-0.804,0.348-1.564,0.598-2.281,0.748S501.106,157.757,500.091,157.757z M499.475,144.096
			c-1.206,0-2.167,0.393-2.884,1.179c-0.718,0.785-1.14,1.872-1.268,3.26h7.851c0-1.434-0.319-2.531-0.959-3.295
			C501.576,144.478,500.663,144.096,499.475,144.096z"/>
		<path fill="#2D3E50" d="M521.507,153.386c0,1.396-0.521,2.475-1.563,3.232c-1.041,0.76-2.503,1.139-4.384,1.139
			c-1.992,0-3.545-0.316-4.659-0.945v-2.111c0.722,0.365,1.496,0.654,2.322,0.863c0.827,0.211,1.624,0.314,2.392,0.314
			c1.188,0,2.101-0.189,2.74-0.568s0.959-0.957,0.959-1.732c0-0.584-0.254-1.084-0.761-1.5s-1.495-0.906-2.966-1.474
			c-1.397-0.521-2.392-0.975-2.98-1.363c-0.589-0.388-1.027-0.829-1.315-1.322c-0.287-0.493-0.432-1.082-0.432-1.767
			c0-1.225,0.498-2.19,1.494-2.898c0.995-0.708,2.36-1.062,4.097-1.062c1.616,0,3.196,0.329,4.74,0.986l-0.809,1.85
			c-1.507-0.621-2.872-0.932-4.097-0.932c-1.077,0-1.891,0.169-2.438,0.507s-0.822,0.804-0.822,1.397
			c0,0.401,0.103,0.745,0.309,1.027c0.205,0.284,0.536,0.554,0.993,0.809c0.457,0.256,1.334,0.626,2.631,1.11
			c1.781,0.648,2.984,1.301,3.61,1.959C521.194,151.564,521.507,152.39,521.507,153.386z"/>
	</g>
	<g>
		<path fill="#2D3E50" d="M215.158,35.676c0,3.307-0.897,5.834-2.692,7.583c-1.794,1.75-4.377,2.624-7.748,2.624h-5.549V25.852
			h6.139c3.115,0,5.535,0.863,7.262,2.589C214.295,30.167,215.158,32.579,215.158,35.676z M212.692,35.758
			c0-2.612-0.656-4.581-1.966-5.905c-1.311-1.325-3.259-1.987-5.844-1.987h-3.384v16.003h2.836c2.777,0,4.864-0.683,6.262-2.048
			S212.692,38.434,212.692,35.758z"/>
		<path fill="#2D3E50" d="M225.657,26.797c0-0.521,0.128-0.902,0.384-1.144c0.255-0.242,0.575-0.363,0.959-0.363
			c0.365,0,0.68,0.124,0.945,0.37c0.265,0.247,0.397,0.626,0.397,1.137c0,0.512-0.133,0.893-0.397,1.144
			c-0.265,0.251-0.58,0.377-0.945,0.377c-0.384,0-0.704-0.125-0.959-0.377C225.785,27.69,225.657,27.309,225.657,26.797z
			 M228.124,45.883h-2.274V30.866h2.274V45.883z"/>
		<path fill="#2D3E50" d="M251.803,30.866v1.439l-2.781,0.329c0.256,0.32,0.484,0.738,0.685,1.254
			c0.201,0.516,0.301,1.098,0.301,1.747c0,1.471-0.502,2.645-1.507,3.521c-1.005,0.877-2.384,1.315-4.138,1.315
			c-0.447,0-0.868-0.037-1.26-0.11c-0.968,0.512-1.453,1.156-1.453,1.932c0,0.411,0.169,0.715,0.507,0.911
			c0.337,0.197,0.918,0.294,1.74,0.294h2.658c1.626,0,2.875,0.343,3.748,1.028c0.872,0.685,1.309,1.681,1.309,2.987
			c0,1.663-0.667,2.93-2,3.802c-1.334,0.872-3.28,1.309-5.837,1.309c-1.964,0-3.478-0.365-4.542-1.096
			c-1.064-0.731-1.596-1.763-1.596-3.097c0-0.914,0.292-1.704,0.877-2.37c0.584-0.667,1.407-1.119,2.466-1.356
			c-0.383-0.173-0.706-0.443-0.966-0.809c-0.26-0.365-0.391-0.79-0.391-1.274c0-0.548,0.146-1.027,0.438-1.438
			s0.754-0.809,1.384-1.192c-0.776-0.32-1.409-0.863-1.897-1.631c-0.489-0.767-0.733-1.644-0.733-2.63
			c0-1.645,0.493-2.912,1.479-3.802c0.987-0.891,2.384-1.336,4.193-1.336c0.786,0,1.494,0.091,2.124,0.274H251.803z M239.828,48.404
			c0,0.813,0.343,1.43,1.028,1.85c0.685,0.42,1.667,0.63,2.946,0.63c1.909,0,3.323-0.286,4.241-0.856s1.377-1.345,1.377-2.322
			c0-0.813-0.251-1.377-0.753-1.692c-0.503-0.315-1.448-0.473-2.836-0.473h-2.727c-1.032,0-1.836,0.247-2.412,0.74
			S239.828,47.481,239.828,48.404z M241.061,35.676c0,1.05,0.296,1.845,0.891,2.384c0.593,0.539,1.42,0.809,2.48,0.809
			c2.22,0,3.329-1.078,3.329-3.234c0-2.256-1.124-3.384-3.371-3.384c-1.068,0-1.891,0.288-2.466,0.863
			C241.349,33.689,241.061,34.543,241.061,35.676z"/>
		<path fill="#2D3E50" d="M261.26,26.797c0-0.521,0.128-0.902,0.384-1.144c0.255-0.242,0.575-0.363,0.959-0.363
			c0.365,0,0.68,0.124,0.945,0.37c0.265,0.247,0.397,0.626,0.397,1.137c0,0.512-0.133,0.893-0.397,1.144
			c-0.265,0.251-0.58,0.377-0.945,0.377c-0.384,0-0.704-0.125-0.959-0.377C261.388,27.69,261.26,27.309,261.26,26.797z
			 M263.727,45.883h-2.274V30.866h2.274V45.883z"/>
		<path fill="#2D3E50" d="M279.966,44.28c0.402,0,0.79-0.03,1.165-0.089c0.374-0.059,0.671-0.121,0.891-0.185v1.74
			c-0.247,0.119-0.61,0.217-1.089,0.295c-0.479,0.077-0.911,0.116-1.295,0.116c-2.905,0-4.357-1.53-4.357-4.59v-8.934h-2.151v-1.096
			l2.151-0.945l0.959-3.206h1.315v3.48h4.357v1.768h-4.357v8.837c0,0.904,0.214,1.599,0.644,2.083
			C278.628,44.038,279.217,44.28,279.966,44.28z"/>
		<path fill="#2D3E50" d="M300.824,45.883l-0.452-2.138h-0.109c-0.749,0.941-1.496,1.578-2.24,1.912
			c-0.745,0.333-1.674,0.5-2.789,0.5c-1.488,0-2.655-0.383-3.5-1.151c-0.846-0.767-1.268-1.859-1.268-3.274
			c0-3.033,2.425-4.622,7.275-4.769l2.549-0.082V35.95c0-1.178-0.254-2.048-0.761-2.61c-0.507-0.562-1.317-0.843-2.432-0.843
			c-1.252,0-2.668,0.384-4.248,1.151l-0.698-1.74c0.739-0.402,1.55-0.717,2.432-0.945c0.882-0.229,1.766-0.343,2.651-0.343
			c1.79,0,3.117,0.397,3.98,1.192c0.863,0.795,1.295,2.069,1.295,3.823v10.249H300.824z M295.685,44.28
			c1.416,0,2.528-0.388,3.337-1.165s1.213-1.864,1.213-3.261v-1.356l-2.274,0.096c-1.809,0.064-3.113,0.345-3.912,0.842
			c-0.8,0.498-1.199,1.272-1.199,2.323c0,0.822,0.249,1.448,0.747,1.877C294.094,44.066,294.791,44.28,295.685,44.28z"/>
		<path fill="#2D3E50" d="M316.035,45.883h-2.274v-21.32h2.274V45.883z"/>
		<path fill="#2D3E50" d="M333.768,46.157c-2.219,0-3.971-0.676-5.254-2.028c-1.283-1.352-1.925-3.229-1.925-5.631
			c0-2.42,0.596-4.343,1.787-5.769c1.192-1.425,2.793-2.137,4.803-2.137c1.882,0,3.371,0.619,4.467,1.856
			c1.097,1.238,1.645,2.871,1.645,4.898v1.438h-10.345c0.045,1.763,0.49,3.102,1.336,4.015c0.845,0.914,2.034,1.37,3.569,1.37
			c1.616,0,3.215-0.338,4.795-1.014v2.028c-0.804,0.347-1.564,0.596-2.281,0.747C335.648,46.082,334.783,46.157,333.768,46.157z
			 M333.152,32.497c-1.206,0-2.167,0.393-2.884,1.179c-0.718,0.786-1.14,1.873-1.268,3.261h7.851c0-1.434-0.319-2.532-0.959-3.295
			C335.252,32.878,334.339,32.497,333.152,32.497z"/>
		<path fill="#2D3E50" d="M381.416,45.883h-2.302l-4.042-13.414c-0.191-0.594-0.406-1.343-0.644-2.247
			c-0.238-0.904-0.361-1.448-0.37-1.63c-0.201,1.206-0.521,2.526-0.959,3.96l-3.919,13.332h-2.302l-5.33-20.032h2.466l3.165,12.373
			c0.438,1.735,0.759,3.307,0.96,4.713c0.246-1.672,0.611-3.307,1.096-4.905l3.59-12.181h2.466l3.769,12.291
			c0.438,1.416,0.809,3.014,1.109,4.795c0.174-1.297,0.503-2.877,0.986-4.741l3.152-12.345h2.466L381.416,45.883z"/>
		<path fill="#2D3E50" d="M405.37,45.883l-0.452-2.138h-0.109c-0.749,0.941-1.496,1.578-2.24,1.912
			c-0.745,0.333-1.674,0.5-2.789,0.5c-1.488,0-2.655-0.383-3.5-1.151c-0.846-0.767-1.268-1.859-1.268-3.274
			c0-3.033,2.425-4.622,7.275-4.769l2.549-0.082V35.95c0-1.178-0.254-2.048-0.761-2.61c-0.507-0.562-1.317-0.843-2.432-0.843
			c-1.252,0-2.668,0.384-4.248,1.151l-0.698-1.74c0.739-0.402,1.55-0.717,2.432-0.945c0.882-0.229,1.766-0.343,2.651-0.343
			c1.79,0,3.117,0.397,3.98,1.192c0.863,0.795,1.295,2.069,1.295,3.823v10.249H405.37z M400.231,44.28
			c1.416,0,2.528-0.388,3.337-1.165s1.213-1.864,1.213-3.261v-1.356l-2.274,0.096c-1.809,0.064-3.113,0.345-3.912,0.842
			c-0.8,0.498-1.199,1.272-1.199,2.323c0,0.822,0.249,1.448,0.747,1.877C398.64,44.066,399.336,44.28,400.231,44.28z
			 M397.546,26.797c0-0.475,0.12-0.817,0.362-1.028c0.242-0.21,0.532-0.315,0.87-0.315c0.348,0,0.646,0.105,0.897,0.315
			c0.251,0.21,0.377,0.553,0.377,1.028c0,0.457-0.126,0.797-0.377,1.021c-0.251,0.224-0.55,0.335-0.897,0.335
			c-0.338,0-0.628-0.112-0.87-0.335C397.667,27.594,397.546,27.254,397.546,26.797z M402.766,26.797
			c0-0.475,0.121-0.817,0.363-1.028c0.242-0.21,0.532-0.315,0.87-0.315s0.632,0.105,0.884,0.315c0.251,0.21,0.377,0.553,0.377,1.028
			c0,0.457-0.126,0.797-0.377,1.021c-0.252,0.224-0.546,0.335-0.884,0.335s-0.628-0.112-0.87-0.335
			C402.887,27.594,402.766,27.254,402.766,26.797z"/>
		<path fill="#2D3E50" d="M428.583,45.883v-9.714c0-1.224-0.278-2.138-0.836-2.74c-0.557-0.603-1.43-0.905-2.616-0.905
			c-1.581,0-2.734,0.43-3.46,1.288c-0.727,0.859-1.09,2.266-1.09,4.22v7.851h-2.274v-21.32h2.274v6.454
			c0,0.776-0.036,1.42-0.109,1.932h0.137c0.448-0.721,1.085-1.29,1.912-1.706c0.826-0.416,1.77-0.624,2.829-0.624
			c1.836,0,3.213,0.437,4.131,1.309c0.918,0.873,1.377,2.259,1.377,4.158v9.797H428.583z"/>
		<path fill="#2D3E50" d="M448.947,30.592c0.666,0,1.265,0.055,1.795,0.165l-0.315,2.11c-0.621-0.137-1.169-0.206-1.645-0.206
			c-1.215,0-2.254,0.493-3.117,1.48c-0.863,0.986-1.295,2.215-1.295,3.686v8.057h-2.274V30.866h1.878l0.26,2.781h0.109
			c0.558-0.977,1.229-1.73,2.015-2.261C447.142,30.857,448.005,30.592,448.947,30.592z"/>
		<path fill="#2D3E50" d="M462.254,30.866v9.742c0,1.224,0.278,2.137,0.836,2.74c0.557,0.603,1.43,0.904,2.617,0.904
			c1.571,0,2.72-0.429,3.445-1.288c0.727-0.858,1.09-2.261,1.09-4.207v-7.892h2.274v15.017h-1.877l-0.329-2.014h-0.123
			c-0.466,0.74-1.112,1.306-1.939,1.699c-0.826,0.393-1.77,0.589-2.829,0.589c-1.827,0-3.194-0.434-4.104-1.302
			c-0.909-0.868-1.363-2.256-1.363-4.165v-9.824H462.254z"/>
		<path fill="#2D3E50" d="M494.182,45.883v-9.714c0-1.224-0.278-2.138-0.836-2.74c-0.557-0.603-1.43-0.905-2.616-0.905
			c-1.571,0-2.723,0.425-3.453,1.274c-0.731,0.85-1.097,2.252-1.097,4.207v7.878h-2.274V30.866h1.85l0.37,2.055h0.11
			c0.466-0.74,1.118-1.313,1.959-1.719c0.84-0.407,1.776-0.61,2.809-0.61c1.809,0,3.17,0.436,4.083,1.309
			c0.913,0.872,1.37,2.268,1.37,4.186v9.797H494.182z"/>
		<path fill="#2D3E50" d="M519.986,30.866v1.439l-2.781,0.329c0.255,0.32,0.483,0.738,0.685,1.254s0.302,1.098,0.302,1.747
			c0,1.471-0.503,2.645-1.508,3.521s-2.384,1.315-4.138,1.315c-0.447,0-0.868-0.037-1.261-0.11
			c-0.968,0.512-1.452,1.156-1.452,1.932c0,0.411,0.169,0.715,0.507,0.911c0.338,0.197,0.918,0.294,1.74,0.294h2.658
			c1.626,0,2.875,0.343,3.747,1.028c0.873,0.685,1.309,1.681,1.309,2.987c0,1.663-0.667,2.93-2,3.802
			c-1.334,0.872-3.279,1.309-5.837,1.309c-1.964,0-3.479-0.365-4.542-1.096c-1.064-0.731-1.597-1.763-1.597-3.097
			c0-0.914,0.292-1.704,0.877-2.37c0.585-0.667,1.406-1.119,2.467-1.356c-0.384-0.173-0.706-0.443-0.967-0.809
			c-0.26-0.365-0.39-0.79-0.39-1.274c0-0.548,0.146-1.027,0.438-1.438c0.292-0.411,0.753-0.809,1.384-1.192
			c-0.776-0.32-1.409-0.863-1.898-1.631c-0.488-0.767-0.732-1.644-0.732-2.63c0-1.645,0.493-2.912,1.479-3.802
			s2.384-1.336,4.192-1.336c0.786,0,1.494,0.091,2.124,0.274H519.986z M508.01,48.404c0,0.813,0.343,1.43,1.027,1.85
			c0.686,0.42,1.667,0.63,2.946,0.63c1.909,0,3.322-0.286,4.24-0.856s1.377-1.345,1.377-2.322c0-0.813-0.251-1.377-0.753-1.692
			c-0.503-0.315-1.448-0.473-2.837-0.473h-2.727c-1.032,0-1.836,0.247-2.411,0.74S508.01,47.481,508.01,48.404z M509.244,35.676
			c0,1.05,0.297,1.845,0.891,2.384c0.594,0.539,1.42,0.809,2.479,0.809c2.22,0,3.33-1.078,3.33-3.234
			c0-2.256-1.124-3.384-3.371-3.384c-1.068,0-1.891,0.288-2.466,0.863C509.531,33.689,509.244,34.543,509.244,35.676z"/>
	</g>
	<g>
		<g enable-background="new    ">
			<path fill="#2D3E50" d="M49.618,158.794V140.9h6.705c1.39,0,2.467,0.178,3.297,0.537c0.829,0.359,1.48,0.921,1.927,1.683
				c0.472,0.762,0.696,1.525,0.696,2.354c0,0.762-0.203,1.504-0.628,2.176c-0.404,0.672-1.031,1.232-1.885,1.637
				c1.078,0.314,1.907,0.852,2.489,1.613c0.584,0.764,0.875,1.684,0.875,2.713c0,0.855-0.18,1.617-0.538,2.357
				c-0.359,0.738-0.784,1.256-1.324,1.682c-0.538,0.381-1.166,0.672-1.973,0.873c-0.785,0.201-1.727,0.293-2.87,0.293
				L49.618,158.794L49.618,158.794z M51.995,148.412h3.879c1.054,0,1.793-0.068,2.265-0.203c0.584-0.178,1.055-0.469,1.346-0.873
				c0.292-0.404,0.471-0.943,0.471-1.547c0-0.583-0.157-1.122-0.447-1.548c-0.292-0.449-0.695-0.763-1.234-0.942
				c-0.538-0.178-1.434-0.269-2.735-0.269h-3.566v5.382H51.995z M51.995,156.687h4.462c0.763,0,1.302-0.023,1.615-0.092
				c0.561-0.088,1.009-0.268,1.39-0.49c0.359-0.227,0.673-0.564,0.92-1.012c0.247-0.447,0.359-0.941,0.359-1.502
				c0-0.672-0.179-1.232-0.494-1.727c-0.314-0.492-0.83-0.852-1.413-1.031c-0.628-0.201-1.479-0.293-2.624-0.293h-4.192v6.146
				H51.995z"/>
			<path fill="#2D3E50" d="M66.01,163.794l-0.225-2.063c0.471,0.113,0.92,0.201,1.255,0.201c0.494,0,0.876-0.088,1.167-0.223
				c0.292-0.156,0.538-0.383,0.74-0.672c0.157-0.203,0.357-0.762,0.672-1.637c0.023-0.115,0.112-0.293,0.202-0.539l-4.911-12.984
				h2.398l2.692,7.488c0.358,0.943,0.672,1.93,0.941,3.006c0.27-1.01,0.561-1.996,0.919-2.959l2.759-7.557h2.198l-4.934,13.184
				c-0.539,1.412-0.942,2.4-1.234,2.938c-0.38,0.74-0.852,1.258-1.346,1.594c-0.493,0.313-1.12,0.492-1.793,0.492
				C67.021,164.042,66.549,163.976,66.01,163.794z"/>
			<path fill="#2D3E50" d="M83.413,156.822l0.314,1.928c-0.628,0.113-1.167,0.201-1.637,0.201c-0.785,0-1.412-0.113-1.861-0.381
				c-0.45-0.268-0.74-0.582-0.943-1.008c-0.179-0.404-0.269-1.258-0.269-2.578v-7.447h-1.613v-1.703h1.613v-3.208l2.176-1.321v4.529
				h2.198v1.703h-2.198v7.578c0,0.631,0.023,1.033,0.113,1.213c0.088,0.18,0.201,0.314,0.381,0.449
				c0.179,0.111,0.404,0.156,0.762,0.156C82.673,156.91,82.985,156.888,83.413,156.822z"/>
			<path fill="#2D3E50" d="M94.423,154.625l2.265,0.289c-0.359,1.324-1.031,2.355-1.996,3.098c-0.965,0.738-2.198,1.074-3.7,1.074
				c-1.906,0-3.409-0.584-4.485-1.77c-1.123-1.168-1.681-2.781-1.681-4.914c0-2.174,0.559-3.879,1.681-5.088
				c1.12-1.213,2.579-1.795,4.373-1.795c1.727,0,3.139,0.582,4.261,1.773c1.076,1.166,1.637,2.846,1.637,4.955
				c0,0.111,0,0.313,0,0.58h-9.667c0.09,1.416,0.471,2.535,1.212,3.254c0.739,0.74,1.614,1.145,2.713,1.145
				c0.784,0,1.501-0.205,2.063-0.652C93.639,156.238,94.109,155.566,94.423,154.625z M87.202,151.06h7.221
				c-0.089-1.078-0.382-1.908-0.83-2.445c-0.695-0.854-1.615-1.258-2.736-1.258c-1.009,0-1.862,0.359-2.557,1.012
				C87.673,149.039,87.292,149.96,87.202,151.06z"/>
			<path fill="#2D3E50" d="M101.486,158.794H99.47V140.9h2.196v6.367c0.942-1.166,2.108-1.727,3.565-1.727
				c0.786,0,1.548,0.158,2.267,0.473c0.695,0.313,1.3,0.762,1.771,1.344c0.472,0.584,0.831,1.301,1.077,2.109
				c0.247,0.807,0.381,1.703,0.381,2.645c0,2.242-0.561,3.947-1.637,5.137c-1.075,1.211-2.399,1.816-3.97,1.816
				c-1.525,0-2.735-0.65-3.61-1.906v1.637H101.486z M101.442,152.201c0,1.549,0.201,2.67,0.65,3.389
				c0.695,1.119,1.614,1.703,2.825,1.703c0.964,0,1.794-0.404,2.49-1.256c0.695-0.83,1.053-2.088,1.053-3.723
				c0-1.705-0.313-2.938-1.008-3.768c-0.673-0.785-1.48-1.211-2.445-1.211s-1.794,0.404-2.489,1.256
				C101.8,149.421,101.442,150.654,101.442,152.201z"/>
			<path fill="#2D3E50" d="M121.805,157.203c-0.831,0.695-1.593,1.166-2.355,1.479c-0.763,0.293-1.547,0.449-2.399,0.449
				c-1.413,0-2.534-0.357-3.296-1.055c-0.764-0.693-1.145-1.59-1.145-2.668c0-0.65,0.157-1.211,0.449-1.727
				c0.292-0.537,0.672-0.943,1.145-1.256c0.47-0.314,1.008-0.561,1.592-0.738c0.447-0.113,1.076-0.225,1.927-0.314
				c1.773-0.203,3.096-0.473,3.903-0.764c0-0.289,0-0.494,0-0.584c0-0.873-0.202-1.523-0.628-1.881
				c-0.56-0.494-1.413-0.74-2.489-0.74c-1.031,0-1.794,0.178-2.289,0.537c-0.493,0.357-0.85,1.01-1.074,1.904l-2.154-0.289
				c0.202-0.92,0.539-1.682,0.964-2.242c0.449-0.563,1.077-1.012,1.929-1.301c0.853-0.293,1.816-0.473,2.938-0.473
				c1.121,0,1.995,0.113,2.713,0.383c0.696,0.27,1.212,0.582,1.525,0.965c0.314,0.379,0.561,0.873,0.672,1.502
				c0.068,0.379,0.113,1.053,0.113,2.018v2.938c0,2.063,0.067,3.318,0.156,3.881c0.09,0.557,0.27,1.055,0.561,1.547h-2.288
				C122.028,158.347,121.872,157.783,121.805,157.203z M121.647,152.292c-0.785,0.314-1.996,0.58-3.588,0.828
				c-0.919,0.111-1.525,0.27-1.906,0.449c-0.382,0.18-0.674,0.402-0.853,0.697c-0.201,0.311-0.292,0.646-0.292,1.053
				c0,0.58,0.226,1.076,0.672,1.48c0.449,0.379,1.077,0.582,1.93,0.582c0.851,0,1.591-0.18,2.265-0.561
				c0.649-0.381,1.143-0.877,1.433-1.525c0.226-0.492,0.361-1.232,0.361-2.197v-0.785h-0.023V152.292z"/>
			<path fill="#2D3E50" d="M127.231,158.794V140.9h2.197v17.894H127.231z"/>
			<path fill="#2D3E50" d="M132.77,158.794V140.9h2.199v17.894H132.77z"/>
		</g>
		<g>
			<path fill="#2D3E50" d="M92.293,27.563c-27.629,0-49.986,22.381-49.986,49.985c0,27.605,22.38,49.985,49.986,49.985
				s49.986-22.38,49.986-49.985C142.279,49.943,119.921,27.563,92.293,27.563z M92.293,120.605
				c-23.771,0-43.011-19.286-43.011-43.012s19.285-43.011,43.011-43.011s43.011,19.285,43.011,43.011
				S116.063,120.605,92.293,120.605z"/>
			<circle fill="#FFFFFF" cx="92.293" cy="77.548" r="43.011"/>
		</g>
	</g>
</g>
</svg>
