<?xml version="1.0" encoding="utf-8"?>
<!-- Generator: Adobe Illustrator 15.0.0, SVG Export Plug-In . SVG Version: 6.00 Build 0)  -->
<!DOCTYPE svg PUBLIC "-//W3C//DTD SVG 1.1//EN" "http://www.w3.org/Graphics/SVG/1.1/DTD/svg11.dtd">
<svg version="1.1" id="Ebene_1" xmlns="http://www.w3.org/2000/svg" xmlns:xlink="http://www.w3.org/1999/xlink" x="0px" y="0px"
	 width="439.334px" height="186.667px" viewBox="0 0 439.334 186.667" enable-background="new 0 0 439.334 186.667"
	 xml:space="preserve">
<path fill="#2C3F50" d="M131.958,93.861l-2.715-8.914h-13.652l-2.715,8.914h-8.555l13.217-37.601h9.708l13.268,37.601H131.958z
	 M127.348,78.288c-2.51-8.077-3.923-12.645-4.239-13.703s-0.542-1.896-0.679-2.51c-0.563,2.186-2.177,7.59-4.841,16.213H127.348z"/>
<path fill="#2C3F50" d="M177.823,83.461c0,3.381-1.217,6.045-3.65,7.992c-2.433,1.947-5.818,2.92-10.156,2.92
	c-3.996,0-7.53-0.751-10.604-2.254v-7.377c2.527,1.127,4.666,1.921,6.416,2.382s3.351,0.691,4.803,0.691
	c1.742,0,3.078-0.333,4.009-0.999c0.93-0.666,1.396-1.656,1.396-2.971c0-0.734-0.205-1.387-0.615-1.959
	c-0.41-0.572-1.012-1.123-1.806-1.652c-0.794-0.529-2.412-1.375-4.854-2.536c-2.289-1.076-4.005-2.109-5.148-3.1
	c-1.144-0.99-2.058-2.143-2.741-3.458c-0.683-1.315-1.024-2.852-1.024-4.611c0-3.313,1.123-5.917,3.368-7.812
	c2.245-1.896,5.349-2.843,9.311-2.843c1.947,0,3.804,0.23,5.571,0.692c1.768,0.461,3.616,1.11,5.545,1.946l-2.561,6.173
	c-1.998-0.819-3.65-1.391-4.957-1.716c-1.306-0.324-2.591-0.487-3.855-0.487c-1.502,0-2.655,0.35-3.458,1.05
	c-0.803,0.7-1.204,1.614-1.204,2.741c0,0.7,0.162,1.311,0.487,1.831c0.324,0.521,0.841,1.025,1.55,1.511
	c0.708,0.487,2.386,1.362,5.033,2.625c3.5,1.674,5.9,3.352,7.198,5.033C177.173,78.958,177.823,81.02,177.823,83.461z"/>
<path fill="#2C3F50" d="M225.787,93.861h-7.915V77.699h-14.83v16.162h-7.94V56.414h7.94V71.09h14.83V56.414h7.915V93.861z"/>
<path fill="#2C3F50" d="M246.165,56.414h10.579c4.969,0,8.563,0.743,10.783,2.229c2.22,1.485,3.33,3.833,3.33,7.043
	c0,2.22-0.619,4.051-1.857,5.494c-1.238,1.443-3.044,2.378-5.417,2.805v0.256c5.686,0.973,8.529,3.962,8.529,8.965
	c0,3.347-1.131,5.959-3.394,7.838s-5.426,2.817-9.49,2.817h-13.063V56.414z M250.52,72.448h7.172c3.073,0,5.285-0.482,6.634-1.447
	c1.349-0.964,2.023-2.591,2.023-4.879c0-2.1-0.751-3.616-2.254-4.546c-1.503-0.931-3.894-1.396-7.172-1.396h-6.403V72.448z
	 M250.52,76.136v14.011h7.812c3.022,0,5.298-0.585,6.826-1.755c1.528-1.169,2.292-3,2.292-5.494c0-2.322-0.781-4.03-2.344-5.123
	s-3.94-1.639-7.133-1.639H250.52z"/>
<path fill="#2C3F50" d="M314.185,93.861l-4.662-11.911h-15.01l-4.61,11.911h-4.406l14.805-37.601h3.663l14.728,37.601H314.185z
	 M308.166,78.032l-4.354-11.603c-0.563-1.469-1.145-3.27-1.742-5.405c-0.376,1.639-0.914,3.441-1.614,5.405l-4.406,11.603H308.166z"
	/>
<path fill="#2C3F50" d="M350.367,59.769c-4.115,0-7.364,1.37-9.746,4.111c-2.382,2.741-3.573,6.493-3.573,11.257
	c0,4.901,1.148,8.688,3.445,11.36c2.296,2.672,5.571,4.008,9.823,4.008c2.613,0,5.592-0.469,8.939-1.409v3.816
	c-2.596,0.973-5.798,1.46-9.605,1.46c-5.516,0-9.771-1.673-12.769-5.02c-2.997-3.347-4.495-8.103-4.495-14.267
	c0-3.859,0.721-7.24,2.165-10.143c1.443-2.903,3.526-5.14,6.25-6.711c2.724-1.571,5.93-2.356,9.618-2.356
	c3.927,0,7.359,0.717,10.297,2.152l-1.845,3.739C356.037,60.435,353.202,59.769,350.367,59.769z"/>
<path fill="#2C3F50" d="M404.965,93.861h-5.122l-13.652-18.16l-3.919,3.483v14.677h-4.354V56.414h4.354v18.57l16.981-18.57h5.148
	l-15.061,16.265L404.965,93.861z"/>
<path fill="#2C3F50" d="M79.454,119.576c-25.043,0-45.417-20.374-45.417-45.417s20.374-45.417,45.417-45.417
	c12.679,0,24.155,5.229,32.403,13.635l4.452-2.571c-9.209-9.874-22.32-16.064-36.855-16.064c-27.8,0-50.417,22.617-50.417,50.417
	s22.617,50.417,50.417,50.417c14.535,0,27.645-6.191,36.854-16.064l-4.452-2.571C103.609,114.348,92.133,119.576,79.454,119.576z"/>
<g>
	<path fill="#2C3F50" d="M185.776,28.711c-1.883,0-3.369,0.627-4.459,1.881s-1.635,2.971-1.635,5.15
		c0,2.242,0.525,3.975,1.576,5.197s2.549,1.834,4.494,1.834c1.195,0,2.559-0.215,4.09-0.645v1.746
		c-1.188,0.445-2.652,0.668-4.395,0.668c-2.523,0-4.471-0.766-5.842-2.297s-2.057-3.707-2.057-6.527c0-1.766,0.33-3.313,0.99-4.641
		s1.613-2.352,2.859-3.07s2.713-1.078,4.4-1.078c1.797,0,3.367,0.328,4.711,0.984l-0.844,1.711
		C188.37,29.016,187.073,28.711,185.776,28.711z"/>
	<path fill="#2C3F50" d="M203.947,31.231c0.57,0,1.082,0.047,1.535,0.141l-0.27,1.805c-0.531-0.117-1-0.176-1.406-0.176
		c-1.039,0-1.928,0.422-2.666,1.266s-1.107,1.895-1.107,3.152v6.891h-1.945V31.465h1.605l0.223,2.379h0.094
		c0.477-0.836,1.051-1.48,1.723-1.934S203.142,31.231,203.947,31.231z"/>
	<path fill="#2C3F50" d="M210.646,31.465h2.086l2.813,7.324c0.617,1.672,1,2.879,1.148,3.621h0.094
		c0.102-0.398,0.314-1.08,0.639-2.045s1.385-3.932,3.182-8.9h2.086l-5.52,14.625c-0.547,1.445-1.186,2.471-1.916,3.076
		s-1.627,0.908-2.689,0.908c-0.594,0-1.18-0.066-1.758-0.199v-1.559c0.43,0.094,0.91,0.141,1.441,0.141
		c1.336,0,2.289-0.75,2.859-2.25l0.715-1.828L210.646,31.465z"/>
	<path fill="#2C3F50" d="M235.555,44.543c-0.836,0-1.6-0.154-2.291-0.463s-1.271-0.783-1.74-1.424h-0.141
		c0.094,0.75,0.141,1.461,0.141,2.133v5.285h-1.945V31.465h1.582l0.27,1.758h0.094c0.5-0.703,1.082-1.211,1.746-1.523
		s1.426-0.469,2.285-0.469c1.703,0,3.018,0.582,3.943,1.746s1.389,2.797,1.389,4.898c0,2.109-0.471,3.748-1.412,4.916
		S237.227,44.543,235.555,44.543z M235.273,32.883c-1.313,0-2.262,0.363-2.848,1.09s-0.887,1.883-0.902,3.469v0.434
		c0,1.805,0.301,3.096,0.902,3.873s1.566,1.166,2.895,1.166c1.109,0,1.979-0.449,2.607-1.348s0.943-2.137,0.943-3.715
		c0-1.602-0.314-2.83-0.943-3.686S236.414,32.883,235.273,32.883z"/>
	<path fill="#2C3F50" d="M253.234,42.938c0.344,0,0.676-0.025,0.996-0.076s0.574-0.104,0.762-0.158v1.488
		c-0.211,0.102-0.521,0.186-0.932,0.252s-0.779,0.1-1.107,0.1c-2.484,0-3.727-1.309-3.727-3.926v-7.641h-1.84V32.04l1.84-0.809
		l0.82-2.742h1.125v2.977h3.727v1.512h-3.727v7.559c0,0.773,0.184,1.367,0.551,1.781S252.593,42.938,253.234,42.938z"/>
	<path fill="#2C3F50" d="M273.444,37.875c0,2.094-0.527,3.729-1.582,4.904s-2.512,1.764-4.371,1.764
		c-1.148,0-2.168-0.27-3.059-0.809s-1.578-1.313-2.063-2.32s-0.727-2.188-0.727-3.539c0-2.094,0.523-3.725,1.57-4.893
		s2.5-1.752,4.359-1.752c1.797,0,3.225,0.598,4.283,1.793S273.444,35.836,273.444,37.875z M263.659,37.875
		c0,1.641,0.328,2.891,0.984,3.75s1.621,1.289,2.895,1.289s2.24-0.428,2.9-1.283s0.99-2.107,0.99-3.756
		c0-1.633-0.33-2.873-0.99-3.721s-1.635-1.271-2.924-1.271c-1.273,0-2.234,0.418-2.883,1.254S263.659,36.219,263.659,37.875z"/>
	<path fill="#2C3F50" d="M286.787,44.543c-1.859,0-3.299-0.572-4.318-1.717s-1.529-2.764-1.529-4.857
		c0-2.148,0.518-3.809,1.553-4.98s2.51-1.758,4.424-1.758c0.617,0,1.234,0.066,1.852,0.199s1.102,0.289,1.453,0.469l-0.598,1.652
		c-0.43-0.172-0.898-0.314-1.406-0.428s-0.957-0.17-1.348-0.17c-2.609,0-3.914,1.664-3.914,4.992c0,1.578,0.318,2.789,0.955,3.633
		s1.58,1.266,2.83,1.266c1.07,0,2.168-0.23,3.293-0.691v1.723C289.173,44.321,288.091,44.543,286.787,44.543z"/>
	<path fill="#2C3F50" d="M299.708,31.465v8.332c0,1.047,0.238,1.828,0.715,2.344s1.223,0.773,2.238,0.773
		c1.344,0,2.326-0.367,2.947-1.102s0.932-1.934,0.932-3.598v-6.75h1.945v12.844h-1.605l-0.281-1.723h-0.105
		c-0.398,0.633-0.951,1.117-1.658,1.453s-1.514,0.504-2.42,0.504c-1.563,0-2.732-0.371-3.51-1.113s-1.166-1.93-1.166-3.563v-8.402
		H299.708z"/>
	<path fill="#2C3F50" d="M323.27,31.231c0.57,0,1.082,0.047,1.535,0.141l-0.27,1.805c-0.531-0.117-1-0.176-1.406-0.176
		c-1.039,0-1.928,0.422-2.666,1.266s-1.107,1.895-1.107,3.152v6.891h-1.945V31.465h1.605l0.223,2.379h0.094
		c0.477-0.836,1.051-1.48,1.723-1.934S322.465,31.231,323.27,31.231z"/>
	<path fill="#2C3F50" d="M337.867,31.231c0.57,0,1.082,0.047,1.535,0.141l-0.27,1.805c-0.531-0.117-1-0.176-1.406-0.176
		c-1.039,0-1.928,0.422-2.666,1.266s-1.107,1.895-1.107,3.152v6.891h-1.945V31.465h1.605l0.223,2.379h0.094
		c0.477-0.836,1.051-1.48,1.723-1.934S337.062,31.231,337.867,31.231z"/>
	<path fill="#2C3F50" d="M352.03,44.543c-1.898,0-3.396-0.578-4.494-1.734s-1.646-2.762-1.646-4.816c0-2.07,0.51-3.715,1.529-4.934
		s2.389-1.828,4.107-1.828c1.609,0,2.883,0.529,3.82,1.588s1.406,2.455,1.406,4.189v1.23h-8.848c0.039,1.508,0.42,2.652,1.143,3.434
		s1.74,1.172,3.053,1.172c1.383,0,2.75-0.289,4.102-0.867v1.734c-0.688,0.297-1.338,0.51-1.951,0.639S352.897,44.543,352.03,44.543z
		 M351.502,32.86c-1.031,0-1.854,0.336-2.467,1.008s-0.975,1.602-1.084,2.789h6.715c0-1.227-0.273-2.166-0.82-2.818
		S352.518,32.86,351.502,32.86z"/>
	<path fill="#2C3F50" d="M373.658,44.309V36c0-1.047-0.238-1.828-0.715-2.344s-1.223-0.773-2.238-0.773
		c-1.344,0-2.328,0.363-2.953,1.09s-0.938,1.926-0.938,3.598v6.738h-1.945V31.465h1.582l0.316,1.758h0.094
		c0.398-0.633,0.957-1.123,1.676-1.471s1.52-0.521,2.402-0.521c1.547,0,2.711,0.373,3.492,1.119s1.172,1.939,1.172,3.58v8.379
		H373.658z"/>
	<path fill="#2C3F50" d="M389.532,44.543c-1.859,0-3.299-0.572-4.318-1.717s-1.529-2.764-1.529-4.857
		c0-2.148,0.518-3.809,1.553-4.98s2.51-1.758,4.424-1.758c0.617,0,1.234,0.066,1.852,0.199s1.102,0.289,1.453,0.469l-0.598,1.652
		c-0.43-0.172-0.898-0.314-1.406-0.428s-0.957-0.17-1.348-0.17c-2.609,0-3.914,1.664-3.914,4.992c0,1.578,0.318,2.789,0.955,3.633
		s1.58,1.266,2.83,1.266c1.07,0,2.168-0.23,3.293-0.691v1.723C391.919,44.321,390.837,44.543,389.532,44.543z"/>
	<path fill="#2C3F50" d="M398.586,31.465h2.086l2.813,7.324c0.617,1.672,1,2.879,1.148,3.621h0.094
		c0.102-0.398,0.314-1.08,0.639-2.045s1.385-3.932,3.182-8.9h2.086l-5.52,14.625c-0.547,1.445-1.186,2.471-1.916,3.076
		s-1.627,0.908-2.689,0.908c-0.594,0-1.18-0.066-1.758-0.199v-1.559c0.43,0.094,0.91,0.141,1.441,0.141
		c1.336,0,2.289-0.75,2.859-2.25l0.715-1.828L398.586,31.465z"/>
</g>
<path fill="#2C3F50" d="M82.429,62.042c0.912,0.111,1.834,0.319,2.769,0.646c1.417,0.496,2.826,1.076,4.227,1.742l2.562-6.455
	c-3.199-1.532-6.384-2.396-9.557-2.593V47.8h-4.762v7.797c-2.198,0.344-4.195,1.033-5.98,2.083
	c-2.655,1.563-4.691,3.808-6.109,6.736c-1.417,2.929-2.126,6.339-2.126,10.233c0,6.182,1.443,10.924,4.329,14.229
	c2.402,2.751,5.707,4.34,9.886,4.8v7.693h4.762v-7.616c2.948-0.199,5.667-0.809,8.148-1.842v-6.66
	c-3.099,1.09-5.811,1.721-8.148,1.907V62.042z M71.623,74.701c0-4.013,0.82-7.142,2.459-9.388c0.961-1.316,2.161-2.235,3.585-2.78
	v24.192C73.641,85.397,71.623,81.394,71.623,74.701z"/>
<g>
	<path fill="#2C3F50" d="M339.676,107.005c-4.746,0-8.682,3.49-9.405,8.036h-48.933c-0.723-4.546-4.659-8.036-9.405-8.036
		c-4.747,0-8.683,3.49-9.406,8.036h-48.933c-0.723-4.546-4.66-8.036-9.406-8.036c-4.746,0-8.682,3.49-9.405,8.036H145.85
		c-0.723-4.546-4.66-8.036-9.406-8.036c-5.258,0-9.536,4.278-9.536,9.536s4.278,9.536,9.536,9.536c4.746,0,8.683-3.49,9.406-8.036
		h48.933c0.723,4.546,4.659,8.036,9.405,8.036c4.747,0,8.683-3.49,9.406-8.036h48.933c0.723,4.546,4.66,8.036,9.406,8.036
		c4.746,0,8.682-3.49,9.405-8.036h48.933c0.723,4.546,4.659,8.036,9.405,8.036c5.258,0,9.536-4.278,9.536-9.536
		S344.935,107.005,339.676,107.005z M136.444,123.076c-3.604,0-6.536-2.932-6.536-6.536s2.932-6.536,6.536-6.536
		s6.536,2.932,6.536,6.536S140.048,123.076,136.444,123.076z M204.188,123.076c-3.604,0-6.535-2.932-6.535-6.536
		s2.932-6.536,6.535-6.536c3.604,0,6.536,2.932,6.536,6.536S207.792,123.076,204.188,123.076z M271.933,123.076
		c-3.604,0-6.536-2.932-6.536-6.536s2.932-6.536,6.536-6.536c3.604,0,6.535,2.932,6.535,6.536S275.536,123.076,271.933,123.076z
		 M339.676,123.076c-3.604,0-6.535-2.932-6.535-6.536s2.932-6.536,6.535-6.536c3.604,0,6.536,2.932,6.536,6.536
		S343.28,123.076,339.676,123.076z"/>
	<path fill="#2C3F50" d="M407.421,107.005c-4.746,0-8.683,3.49-9.406,8.036h-48.714v3h48.714c0.723,4.546,4.66,8.036,9.406,8.036
		c5.258,0,9.536-4.278,9.536-9.536S412.679,107.005,407.421,107.005z M407.421,123.076c-3.254,0-5.952-2.392-6.447-5.509v-2.054
		c0.495-3.117,3.193-5.509,6.447-5.509c3.604,0,6.536,2.932,6.536,6.536S411.025,123.076,407.421,123.076z"/>
</g>
<g>
	<path fill="#2C3F50" d="M198.854,142.067c0,1.229-0.419,2.174-1.257,2.835c-0.839,0.661-2.038,0.991-3.599,0.991h-1.428v4.773
		h-1.411v-12.136h3.146C197.337,138.531,198.854,139.709,198.854,142.067z M192.57,144.682h1.27c1.25,0,2.155-0.202,2.714-0.606
		s0.838-1.052,0.838-1.942c0-0.803-0.263-1.4-0.789-1.793s-1.345-0.59-2.457-0.59h-1.577V144.682z"/>
	<path fill="#2C3F50" d="M212.438,146.11c0,1.482-0.374,2.641-1.121,3.474s-1.779,1.249-3.096,1.249
		c-0.813,0-1.536-0.191-2.167-0.572c-0.631-0.383-1.118-0.93-1.461-1.645c-0.343-0.713-0.515-1.549-0.515-2.506
		c0-1.483,0.371-2.639,1.112-3.466s1.771-1.241,3.088-1.241c1.273,0,2.284,0.424,3.034,1.27
		C212.063,143.52,212.438,144.665,212.438,146.11z M205.507,146.11c0,1.162,0.232,2.047,0.697,2.656
		c0.465,0.608,1.148,0.912,2.05,0.912s1.587-0.303,2.054-0.908c0.468-0.606,0.702-1.493,0.702-2.66c0-1.157-0.234-2.035-0.702-2.636
		c-0.467-0.601-1.158-0.901-2.071-0.901c-0.902,0-1.583,0.297-2.042,0.889S205.507,144.936,205.507,146.11z"/>
	<path fill="#2C3F50" d="M225.683,150.667l-1.668-5.338c-0.105-0.326-0.302-1.067-0.589-2.225h-0.066
		c-0.221,0.969-0.415,1.716-0.581,2.242l-1.718,5.32h-1.594l-2.482-9.098h1.444c0.586,2.285,1.033,4.025,1.341,5.221
		c0.307,1.195,0.482,2.001,0.527,2.416h0.066c0.061-0.315,0.159-0.724,0.294-1.225c0.136-0.501,0.253-0.897,0.353-1.191l1.668-5.221
		h1.494l1.627,5.221c0.31,0.952,0.52,1.752,0.631,2.399h0.066c0.022-0.199,0.082-0.507,0.179-0.921
		c0.097-0.416,0.673-2.648,1.73-6.699h1.428l-2.515,9.098H225.683z"/>
	<path fill="#2C3F50" d="M238.721,150.833c-1.345,0-2.406-0.409-3.183-1.229c-0.778-0.819-1.167-1.956-1.167-3.412
		c0-1.466,0.361-2.631,1.083-3.494c0.722-0.863,1.692-1.295,2.909-1.295c1.14,0,2.042,0.375,2.706,1.125s0.996,1.738,0.996,2.967
		v0.872h-6.267c0.028,1.068,0.297,1.879,0.809,2.433c0.512,0.553,1.233,0.83,2.163,0.83c0.979,0,1.948-0.205,2.905-0.615v1.229
		c-0.487,0.211-0.948,0.361-1.382,0.453C239.859,150.787,239.335,150.833,238.721,150.833z M238.347,142.557
		c-0.73,0-1.313,0.237-1.747,0.713c-0.435,0.477-0.69,1.135-0.768,1.977h4.756c0-0.869-0.194-1.535-0.581-1.997
		S239.066,142.557,238.347,142.557z"/>
	<path fill="#2C3F50" d="M251.965,141.403c0.404,0,0.767,0.033,1.087,0.1l-0.191,1.278c-0.376-0.083-0.708-0.124-0.996-0.124
		c-0.736,0-1.365,0.299-1.889,0.896c-0.522,0.598-0.784,1.342-0.784,2.232v4.881h-1.378v-9.098h1.137l0.158,1.686h0.066
		c0.337-0.593,0.744-1.049,1.22-1.37S251.396,141.403,251.965,141.403z"/>
	<path fill="#2C3F50" d="M261.998,150.833c-1.345,0-2.406-0.409-3.184-1.229c-0.777-0.819-1.166-1.956-1.166-3.412
		c0-1.466,0.361-2.631,1.083-3.494c0.723-0.863,1.692-1.295,2.91-1.295c1.14,0,2.042,0.375,2.706,1.125s0.996,1.738,0.996,2.967
		v0.872h-6.267c0.028,1.068,0.297,1.879,0.81,2.433c0.512,0.553,1.232,0.83,2.162,0.83c0.979,0,1.948-0.205,2.905-0.615v1.229
		c-0.487,0.211-0.948,0.361-1.382,0.453C263.136,150.787,262.612,150.833,261.998,150.833z M261.624,142.557
		c-0.73,0-1.313,0.237-1.748,0.713c-0.434,0.477-0.69,1.135-0.768,1.977h4.756c0-0.869-0.194-1.535-0.581-1.997
		S262.343,142.557,261.624,142.557z"/>
	<path fill="#2C3F50" d="M277.284,149.446h-0.075c-0.636,0.925-1.588,1.387-2.855,1.387c-1.19,0-2.115-0.406-2.776-1.221
		c-0.662-0.813-0.992-1.97-0.992-3.469c0-1.5,0.332-2.665,0.996-3.495s1.588-1.245,2.772-1.245c1.234,0,2.18,0.448,2.839,1.345
		h0.108l-0.058-0.655l-0.033-0.64v-3.702h1.378v12.916h-1.121L277.284,149.446z M274.528,149.678c0.941,0,1.623-0.256,2.046-0.768
		c0.423-0.512,0.635-1.338,0.635-2.478v-0.29c0-1.29-0.214-2.21-0.644-2.761c-0.429-0.551-1.113-0.825-2.054-0.825
		c-0.808,0-1.426,0.313-1.855,0.941c-0.429,0.628-0.644,1.516-0.644,2.66c0,1.162,0.213,2.04,0.639,2.632
		S273.704,149.678,274.528,149.678z"/>
	<path fill="#2C3F50" d="M296.959,141.419c1.195,0,2.124,0.408,2.785,1.225c0.662,0.816,0.992,1.972,0.992,3.466
		s-0.333,2.654-1,3.481c-0.667,0.827-1.593,1.241-2.777,1.241c-0.592,0-1.133-0.109-1.623-0.328
		c-0.49-0.219-0.901-0.555-1.233-1.008h-0.1l-0.291,1.17h-0.988V137.75h1.378v3.138c0,0.703-0.022,1.334-0.066,1.893h0.066
		C294.746,141.874,295.697,141.419,296.959,141.419z M296.76,142.573c-0.941,0-1.619,0.271-2.034,0.81
		c-0.415,0.54-0.623,1.448-0.623,2.728c0,1.277,0.213,2.192,0.639,2.743s1.109,0.825,2.05,0.825c0.847,0,1.478-0.308,1.893-0.925
		s0.623-1.504,0.623-2.661c0-1.184-0.208-2.066-0.623-2.647S297.628,142.573,296.76,142.573z"/>
	<path fill="#2C3F50" d="M305.099,141.569h1.478l1.992,5.188c0.437,1.185,0.708,2.04,0.813,2.565h0.066
		c0.072-0.282,0.223-0.765,0.453-1.448c0.229-0.684,0.98-2.785,2.253-6.305h1.478l-3.91,10.359c-0.387,1.023-0.84,1.75-1.357,2.179
		c-0.517,0.429-1.152,0.644-1.905,0.644c-0.42,0-0.835-0.047-1.245-0.141v-1.104c0.304,0.066,0.645,0.1,1.021,0.1
		c0.946,0,1.622-0.531,2.025-1.594l0.506-1.295L305.099,141.569z"/>
	<path fill="#2C3F50" d="M326.533,138.531h3.428c1.61,0,2.775,0.241,3.495,0.722c0.719,0.482,1.079,1.243,1.079,2.283
		c0,0.72-0.201,1.313-0.602,1.78c-0.401,0.468-0.987,0.771-1.756,0.909v0.083c1.843,0.315,2.764,1.284,2.764,2.905
		c0,1.085-0.367,1.932-1.1,2.54c-0.733,0.608-1.758,0.913-3.075,0.913h-4.233V138.531z M327.944,143.727h2.324
		c0.996,0,1.713-0.156,2.15-0.469s0.656-0.84,0.656-1.582c0-0.68-0.244-1.171-0.73-1.473s-1.262-0.453-2.324-0.453h-2.075V143.727z
		 M327.944,144.922v4.541h2.532c0.979,0,1.717-0.19,2.212-0.569c0.495-0.379,0.743-0.973,0.743-1.78c0-0.753-0.253-1.306-0.759-1.66
		c-0.507-0.354-1.277-0.531-2.312-0.531H327.944z"/>
	<path fill="#2C3F50" d="M339.296,141.569h1.478l1.992,5.188c0.437,1.185,0.708,2.04,0.813,2.565h0.066
		c0.072-0.282,0.223-0.765,0.453-1.448c0.229-0.684,0.98-2.785,2.253-6.305h1.478l-3.91,10.359c-0.387,1.023-0.84,1.75-1.357,2.179
		c-0.517,0.429-1.152,0.644-1.905,0.644c-0.42,0-0.835-0.047-1.245-0.141v-1.104c0.304,0.066,0.645,0.1,1.021,0.1
		c0.946,0,1.622-0.531,2.025-1.594l0.506-1.295L339.296,141.569z"/>
	<path fill="#2C3F50" d="M355.646,149.696c0.244,0,0.479-0.019,0.706-0.055s0.407-0.073,0.54-0.111v1.054
		c-0.149,0.072-0.37,0.132-0.66,0.179c-0.291,0.047-0.552,0.07-0.785,0.07c-1.76,0-2.64-0.927-2.64-2.781v-5.412h-1.303v-0.664
		l1.303-0.572l0.581-1.942h0.797v2.108h2.64v1.07h-2.64v5.354c0,0.548,0.13,0.969,0.39,1.262S355.192,149.696,355.646,149.696z"/>
	<path fill="#2C3F50" d="M365.952,150.833c-1.345,0-2.406-0.409-3.184-1.229c-0.777-0.819-1.166-1.956-1.166-3.412
		c0-1.466,0.361-2.631,1.083-3.494c0.723-0.863,1.692-1.295,2.91-1.295c1.14,0,2.042,0.375,2.706,1.125s0.996,1.738,0.996,2.967
		v0.872h-6.267c0.028,1.068,0.297,1.879,0.81,2.433c0.512,0.553,1.232,0.83,2.162,0.83c0.979,0,1.948-0.205,2.905-0.615v1.229
		c-0.487,0.211-0.948,0.361-1.382,0.453C367.09,150.787,366.566,150.833,365.952,150.833z M365.578,142.557
		c-0.73,0-1.313,0.237-1.748,0.713c-0.434,0.477-0.69,1.135-0.768,1.977h4.756c0-0.869-0.194-1.535-0.581-1.997
		S366.297,142.557,365.578,142.557z"/>
	<path fill="#2C3F50" d="M379.279,141.419c1.195,0,2.124,0.408,2.785,1.225c0.662,0.816,0.992,1.972,0.992,3.466
		s-0.333,2.654-1,3.481c-0.667,0.827-1.593,1.241-2.777,1.241c-0.592,0-1.133-0.109-1.623-0.328
		c-0.49-0.219-0.901-0.555-1.233-1.008h-0.1l-0.291,1.17h-0.988V137.75h1.378v3.138c0,0.703-0.022,1.334-0.066,1.893h0.066
		C377.066,141.874,378.018,141.419,379.279,141.419z M379.08,142.573c-0.941,0-1.619,0.271-2.034,0.81
		c-0.415,0.54-0.623,1.448-0.623,2.728c0,1.277,0.213,2.192,0.639,2.743s1.109,0.825,2.05,0.825c0.847,0,1.478-0.308,1.893-0.925
		s0.623-1.504,0.623-2.661c0-1.184-0.208-2.066-0.623-2.647S379.949,142.573,379.08,142.573z"/>
	<path fill="#2C3F50" d="M394.458,150.667l-0.274-1.295h-0.066c-0.454,0.57-0.906,0.956-1.357,1.158
		c-0.451,0.202-1.014,0.303-1.689,0.303c-0.902,0-1.609-0.232-2.121-0.697c-0.512-0.465-0.768-1.126-0.768-1.984
		c0-1.837,1.469-2.8,4.408-2.889l1.544-0.049v-0.564c0-0.715-0.153-1.241-0.461-1.582c-0.307-0.34-0.798-0.51-1.473-0.51
		c-0.758,0-1.616,0.232-2.573,0.697l-0.423-1.055c0.448-0.243,0.939-0.435,1.474-0.572c0.534-0.139,1.069-0.208,1.606-0.208
		c1.084,0,1.888,0.241,2.412,0.722c0.522,0.482,0.784,1.254,0.784,2.316v6.209H394.458z M391.345,149.696
		c0.858,0,1.531-0.235,2.021-0.706c0.489-0.471,0.734-1.129,0.734-1.976v-0.822l-1.378,0.059c-1.096,0.039-1.886,0.209-2.37,0.511
		c-0.484,0.302-0.726,0.771-0.726,1.407c0,0.498,0.151,0.877,0.453,1.137C390.381,149.565,390.803,149.696,391.345,149.696z"/>
	<path fill="#2C3F50" d="M403.096,150.667h-1.378V137.75h1.378V150.667z"/>
	<path fill="#2C3F50" d="M410.796,150.667h-1.378V137.75h1.378V150.667z"/>
</g>
</svg>
